<mxfile host="app.diagrams.net" agent="Mozilla/5.0 (Windows NT 10.0; Win64; x64) AppleWebKit/537.36 (KHTML, like Gecko) Chrome/137.0.0.0 Safari/537.36" version="27.1.1">
  <diagram name="ページ1" id="f6tFQ64QTpeIHVYmQmMS">
    <mxGraphModel dx="2760" dy="2004" grid="1" gridSize="10" guides="1" tooltips="1" connect="1" arrows="1" fold="1" page="1" pageScale="1" pageWidth="827" pageHeight="1169" math="0" shadow="0">
      <root>
        <mxCell id="0" />
        <mxCell id="1" parent="0" />
        <mxCell id="grRCgsBjdt6_XXE6SY-G-8" value="" style="rounded=0;whiteSpace=wrap;html=1;" parent="1" vertex="1">
          <mxGeometry x="40" y="310" width="460" height="320" as="geometry" />
        </mxCell>
        <mxCell id="qGGfUsG8ycWiL8G0Mho2-11" value="" style="rounded=0;whiteSpace=wrap;html=1;" vertex="1" parent="1">
          <mxGeometry x="318" y="350" width="112" height="140" as="geometry" />
        </mxCell>
        <mxCell id="grRCgsBjdt6_XXE6SY-G-4" value="EC2 インスタンス" style="text;html=1;align=center;verticalAlign=middle;whiteSpace=wrap;rounded=0;" parent="1" vertex="1">
          <mxGeometry x="54" y="424" width="130" height="30" as="geometry" />
        </mxCell>
        <mxCell id="grRCgsBjdt6_XXE6SY-G-7" value="" style="sketch=0;points=[[0,0,0],[0.25,0,0],[0.5,0,0],[0.75,0,0],[1,0,0],[0,1,0],[0.25,1,0],[0.5,1,0],[0.75,1,0],[1,1,0],[0,0.25,0],[0,0.5,0],[0,0.75,0],[1,0.25,0],[1,0.5,0],[1,0.75,0]];outlineConnect=0;fontColor=#232F3E;fillColor=#ED7100;strokeColor=#ffffff;dashed=0;verticalLabelPosition=bottom;verticalAlign=top;align=center;html=1;fontSize=12;fontStyle=0;aspect=fixed;shape=mxgraph.aws4.resourceIcon;resIcon=mxgraph.aws4.ec2;" parent="1" vertex="1">
          <mxGeometry x="76" y="340" width="78" height="78" as="geometry" />
        </mxCell>
        <mxCell id="grRCgsBjdt6_XXE6SY-G-9" value="" style="sketch=0;points=[[0,0,0],[0.25,0,0],[0.5,0,0],[0.75,0,0],[1,0,0],[0,1,0],[0.25,1,0],[0.5,1,0],[0.75,1,0],[1,1,0],[0,0.25,0],[0,0.5,0],[0,0.75,0],[1,0.25,0],[1,0.5,0],[1,0.75,0]];points=[[0,0,0],[0.25,0,0],[0.5,0,0],[0.75,0,0],[1,0,0],[0,1,0],[0.25,1,0],[0.5,1,0],[0.75,1,0],[1,1,0],[0,0.25,0],[0,0.5,0],[0,0.75,0],[1,0.25,0],[1,0.5,0],[1,0.75,0]];outlineConnect=0;fontColor=#232F3E;fillColor=#E7157B;strokeColor=#ffffff;dashed=0;verticalLabelPosition=bottom;verticalAlign=top;align=center;html=1;fontSize=12;fontStyle=0;aspect=fixed;shape=mxgraph.aws4.resourceIcon;resIcon=mxgraph.aws4.cloudwatch_2;" parent="1" vertex="1">
          <mxGeometry x="180.5" y="140" width="78" height="78" as="geometry" />
        </mxCell>
        <mxCell id="grRCgsBjdt6_XXE6SY-G-10" value="CloudWatch Logs" style="text;html=1;align=center;verticalAlign=middle;whiteSpace=wrap;rounded=0;" parent="1" vertex="1">
          <mxGeometry x="169" y="230" width="101" height="30" as="geometry" />
        </mxCell>
        <mxCell id="qGGfUsG8ycWiL8G0Mho2-1" value="" style="shape=image;imageAspect=0;aspect=fixed;verticalLabelPosition=bottom;verticalAlign=top;image=https://scontent-nrt1-2.xx.fbcdn.net/v/t39.30808-6/304778810_504599341670847_1168357061434201929_n.png?_nc_cat=102&amp;ccb=1-7&amp;_nc_sid=6ee11a&amp;_nc_ohc=34apQ0M1di0Q7kNvwGB-Igr&amp;_nc_oc=Adl8ywwBV1PFjmUsnzQj1sX1IGfeUElMIZ-mOT9rX7CfCOhYzib1-h5_cv8wlB3z7zmWRt42PoCdaQnGjuWDkeWi&amp;_nc_zt=23&amp;_nc_ht=scontent-nrt1-2.xx&amp;_nc_gid=1kpIWVIfxPagymm5KtmAmA&amp;oh=00_AfJYcQzEiVK8JMLQmGPvQpKh8Zz22YH6Kd6VV1aSiP5vMQ&amp;oe=68409AE8;" vertex="1" parent="1">
          <mxGeometry x="346" y="360" width="64" height="64" as="geometry" />
        </mxCell>
        <mxCell id="grRCgsBjdt6_XXE6SY-G-14" value="Factorioサーバー" style="text;html=1;align=center;verticalAlign=middle;whiteSpace=wrap;rounded=0;" parent="1" vertex="1">
          <mxGeometry x="319" y="405" width="106" height="30" as="geometry" />
        </mxCell>
        <mxCell id="qGGfUsG8ycWiL8G0Mho2-2" value="systemd" style="rounded=0;whiteSpace=wrap;html=1;" vertex="1" parent="1">
          <mxGeometry x="360" y="320" width="120" height="20" as="geometry" />
        </mxCell>
        <mxCell id="qGGfUsG8ycWiL8G0Mho2-3" value="" style="endArrow=none;html=1;rounded=0;entryX=0.75;entryY=1;entryDx=0;entryDy=0;exitX=1;exitY=0.25;exitDx=0;exitDy=0;" edge="1" parent="1" source="qGGfUsG8ycWiL8G0Mho2-11" target="qGGfUsG8ycWiL8G0Mho2-2">
          <mxGeometry width="50" height="50" relative="1" as="geometry">
            <mxPoint x="550" y="420" as="sourcePoint" />
            <mxPoint x="600" y="370" as="targetPoint" />
            <Array as="points">
              <mxPoint x="450" y="385" />
            </Array>
          </mxGeometry>
        </mxCell>
        <mxCell id="qGGfUsG8ycWiL8G0Mho2-4" value="標準出力" style="shape=tape;whiteSpace=wrap;html=1;strokeWidth=2;size=0.19" vertex="1" parent="1">
          <mxGeometry x="339.5" y="475" width="65" height="25" as="geometry" />
        </mxCell>
        <mxCell id="qGGfUsG8ycWiL8G0Mho2-5" value="" style="html=1;shadow=0;dashed=0;align=center;verticalAlign=middle;shape=mxgraph.arrows2.arrow;dy=0.65;dx=17.82;direction=south;notch=0;fillColor=#FFD966;" vertex="1" parent="1">
          <mxGeometry x="362" y="431" width="20" height="40" as="geometry" />
        </mxCell>
        <mxCell id="qGGfUsG8ycWiL8G0Mho2-6" value="" style="html=1;shadow=0;dashed=0;align=center;verticalAlign=middle;shape=mxgraph.arrows2.arrow;dy=0.65;dx=17.82;direction=south;notch=0;fillColor=#7EA6E0;rotation=-90;" vertex="1" parent="1">
          <mxGeometry x="620" width="20" height="100" as="geometry" />
        </mxCell>
        <mxCell id="qGGfUsG8ycWiL8G0Mho2-7" value="処理の流れ" style="text;html=1;align=center;verticalAlign=middle;whiteSpace=wrap;rounded=0;fontSize=17;fontStyle=1;fontColor=#526B91;" vertex="1" parent="1">
          <mxGeometry x="685" y="35" width="105" height="30" as="geometry" />
        </mxCell>
        <mxCell id="qGGfUsG8ycWiL8G0Mho2-8" value="" style="shape=note;whiteSpace=wrap;html=1;backgroundOutline=1;darkOpacity=0.05;size=13;" vertex="1" parent="1">
          <mxGeometry x="357" y="546" width="30" height="40" as="geometry" />
        </mxCell>
        <mxCell id="qGGfUsG8ycWiL8G0Mho2-9" value="ファイル" style="text;html=1;align=center;verticalAlign=middle;whiteSpace=wrap;rounded=0;" vertex="1" parent="1">
          <mxGeometry x="342" y="583" width="60" height="30" as="geometry" />
        </mxCell>
        <mxCell id="qGGfUsG8ycWiL8G0Mho2-10" value="" style="html=1;shadow=0;dashed=0;align=center;verticalAlign=middle;shape=mxgraph.arrows2.arrow;dy=0.65;dx=17.82;direction=south;notch=0;fillColor=#FFD966;" vertex="1" parent="1">
          <mxGeometry x="362" y="503" width="20" height="40" as="geometry" />
        </mxCell>
        <mxCell id="grRCgsBjdt6_XXE6SY-G-11" value="CloudWatch Agent" style="sketch=0;outlineConnect=0;fontColor=#232F3E;gradientColor=none;strokeColor=#232F3E;fillColor=#ffffff;dashed=0;verticalLabelPosition=bottom;verticalAlign=top;align=center;html=1;fontSize=12;fontStyle=0;aspect=fixed;shape=mxgraph.aws4.resourceIcon;resIcon=mxgraph.aws4.instance_with_cloudwatch;labelBackgroundColor=default;" parent="1" vertex="1">
          <mxGeometry x="198.5" y="536" width="60" height="60" as="geometry" />
        </mxCell>
        <mxCell id="qGGfUsG8ycWiL8G0Mho2-16" value="" style="sketch=0;points=[[0,0,0],[0.25,0,0],[0.5,0,0],[0.75,0,0],[1,0,0],[0,1,0],[0.25,1,0],[0.5,1,0],[0.75,1,0],[1,1,0],[0,0.25,0],[0,0.5,0],[0,0.75,0],[1,0.25,0],[1,0.5,0],[1,0.75,0]];outlineConnect=0;fontColor=#232F3E;fillColor=#ED7100;strokeColor=#ffffff;dashed=0;verticalLabelPosition=bottom;verticalAlign=top;align=center;html=1;fontSize=12;fontStyle=0;aspect=fixed;shape=mxgraph.aws4.resourceIcon;resIcon=mxgraph.aws4.lambda;" vertex="1" parent="1">
          <mxGeometry x="404.5" y="140" width="78" height="78" as="geometry" />
        </mxCell>
        <mxCell id="qGGfUsG8ycWiL8G0Mho2-17" value="Lambda" style="text;html=1;align=center;verticalAlign=middle;whiteSpace=wrap;rounded=0;" vertex="1" parent="1">
          <mxGeometry x="393" y="230" width="101" height="30" as="geometry" />
        </mxCell>
        <mxCell id="qGGfUsG8ycWiL8G0Mho2-18" value="" style="html=1;shadow=0;dashed=0;align=center;verticalAlign=middle;shape=mxgraph.arrows2.jumpInArrow;dy=3.28;dx=29;arrowHead=22.71;rotation=105;fillColor=#7EA6E0;" vertex="1" parent="1">
          <mxGeometry x="357" y="528" width="77.5" height="15" as="geometry" />
        </mxCell>
        <mxCell id="qGGfUsG8ycWiL8G0Mho2-20" value="" style="html=1;shadow=0;dashed=0;align=center;verticalAlign=middle;shape=mxgraph.arrows2.arrow;dy=0.6;dx=22;notch=0;fillColor=#7EA6E0;" vertex="1" parent="1">
          <mxGeometry x="260" y="565" width="86" height="20" as="geometry" />
        </mxCell>
        <mxCell id="qGGfUsG8ycWiL8G0Mho2-21" value="監視" style="text;html=1;align=center;verticalAlign=middle;whiteSpace=wrap;rounded=0;fontColor=#526B91;" vertex="1" parent="1">
          <mxGeometry x="259.5" y="573" width="80" height="30" as="geometry" />
        </mxCell>
        <mxCell id="qGGfUsG8ycWiL8G0Mho2-13" value="systemd" style="ellipse;whiteSpace=wrap;html=1;" vertex="1" parent="1">
          <mxGeometry x="400.5" y="503" width="82" height="29" as="geometry" />
        </mxCell>
        <mxCell id="qGGfUsG8ycWiL8G0Mho2-19" value="出力" style="text;html=1;align=center;verticalAlign=middle;whiteSpace=wrap;rounded=0;fontColor=#526B91;labelBackgroundColor=default;" vertex="1" parent="1">
          <mxGeometry x="402" y="528" width="28" height="30" as="geometry" />
        </mxCell>
        <mxCell id="qGGfUsG8ycWiL8G0Mho2-22" value="" style="html=1;shadow=0;dashed=0;align=center;verticalAlign=middle;shape=mxgraph.arrows2.arrow;dy=0.6;dx=22;notch=0;fillColor=#7EA6E0;rotation=-90;" vertex="1" parent="1">
          <mxGeometry x="75" y="394" width="264.5" height="15" as="geometry" />
        </mxCell>
        <mxCell id="qGGfUsG8ycWiL8G0Mho2-23" value="送信" style="text;html=1;align=center;verticalAlign=middle;whiteSpace=wrap;rounded=0;fontColor=#526B91;" vertex="1" parent="1">
          <mxGeometry x="188.5" y="409" width="80" height="30" as="geometry" />
        </mxCell>
        <mxCell id="qGGfUsG8ycWiL8G0Mho2-14" value="" style="html=1;shadow=0;dashed=0;align=center;verticalAlign=middle;shape=mxgraph.arrows2.arrow;dy=0.65;dx=17.82;direction=south;notch=0;fillColor=#FFD966;rotation=160;" vertex="1" parent="1">
          <mxGeometry x="280" y="258.5" width="20" height="323" as="geometry" />
        </mxCell>
        <mxCell id="qGGfUsG8ycWiL8G0Mho2-24" value="" style="html=1;shadow=0;dashed=0;align=center;verticalAlign=middle;shape=mxgraph.arrows2.arrow;dy=0.65;dx=17.82;direction=south;notch=0;fillColor=#FFD966;rotation=-90;" vertex="1" parent="1">
          <mxGeometry x="620" y="40" width="20" height="100" as="geometry" />
        </mxCell>
        <mxCell id="qGGfUsG8ycWiL8G0Mho2-25" value="データの流れ" style="text;html=1;align=center;verticalAlign=middle;whiteSpace=wrap;rounded=0;fontSize=17;fontStyle=1;fontColor=#AB9345;" vertex="1" parent="1">
          <mxGeometry x="685" y="75" width="105" height="30" as="geometry" />
        </mxCell>
        <mxCell id="qGGfUsG8ycWiL8G0Mho2-26" value="" style="html=1;shadow=0;dashed=0;align=center;verticalAlign=middle;shape=mxgraph.arrows2.arrow;dy=0.6;dx=22;notch=0;fillColor=#7EA6E0;rotation=0;" vertex="1" parent="1">
          <mxGeometry x="270" y="150" width="121.5" height="15" as="geometry" />
        </mxCell>
        <mxCell id="qGGfUsG8ycWiL8G0Mho2-27" value="呼び出し" style="text;html=1;align=center;verticalAlign=middle;whiteSpace=wrap;rounded=0;fontColor=#526B91;" vertex="1" parent="1">
          <mxGeometry x="290.75" y="160" width="80" height="30" as="geometry" />
        </mxCell>
        <mxCell id="qGGfUsG8ycWiL8G0Mho2-28" value="" style="html=1;shadow=0;dashed=0;align=center;verticalAlign=middle;shape=mxgraph.arrows2.arrow;dy=0.6;dx=22;notch=0;fillColor=#FFD966;rotation=0;" vertex="1" parent="1">
          <mxGeometry x="271.5" y="200" width="121.5" height="15" as="geometry" />
        </mxCell>
        <mxCell id="qGGfUsG8ycWiL8G0Mho2-29" value="" style="shape=image;imageAspect=0;aspect=fixed;verticalLabelPosition=bottom;verticalAlign=top;image=data:image/png,iVBORw0KGgoAAAANSUhEUgAAClcAAAGQCAYAAAFO+pTGAAAACXBIWXMAAC4jAAAuIwF4pT92AAAgAElEQVR4nOzdS3bcthf4+escj9nSCrq8gpZWkNIKIs84S2nAcawVWF6BlDEHqsw4s34rUGUFUq/A+q9Aam7APSiUQ5frwQeAi8f3c05OXjJ5xWKB4MUFIOJQWbVzl8cHAF/e2TxYWbXfd/33pi4mn2fPsR+auvg49dgAcMz7qQfY10B6ctk9v41GGQB2GdW4jGkguw1ZWbUzEbkXkfmOH/3S1MWNzfMBwFSDGhTlXuQoNJoAbOjdkMTYUG7QYE5XVu2riJxs/p1ritz0uuFjbiiNt6YuTrWDiNGxz55GE7Ea2q5NHuCJxMnxH3HD8YPml/yuTX1iL6v2Ow0mcnD0Jk+gV/mDxpda4/rZ+j2HxE6DidhY7VmWVfs4LRxosFFOldJDErDhtyP/f+4jCF9ybADKqv2e4+8N2La3seQLlhbTaKrlboHY5TLA80PmAxKvZdUGl18sq/ariFwO/GPXTV3cuYhnI7TJEEPjCe1z3jDpvX+nDE6WVbuQ9cSWg2xeg50H2q6pS43PmyjUHnqfa+BygMf2ddEY1Dpmakx9GwTXsdhopG2VoI39fMbEtG1fYxnkF9wmXw1mwNeyV8+sT/xDrqXr6xHigJb2g2TLXVMX10P+wJTGsm/H69g1Mimk1yFx7PDS1MWHzjEH/V6/5CzJa2Xjts8PHbmJL0JqKMecw8cA2JDje7hGn3w9wMuq/SQW3lBNvFMbShGR2ZTffVfO0kZQwQs5d9njKfsoFioV+l4Dh0vsqQopprJqb0Xkk8fz+bj/ez2QDzE90yAcKx1CgJq6uGjq4p252Zfa8RwTUqO0EVJMZdXei8eGsnNeZ9fA4rGtv+mOje2nxjKkGwj9NHVx5TN5n4IAf+eF1okDvBY/hNaYZ92zDPlGGSrUlEJo15h43MdgRvGnHkP9umzLrs4S/QzJaTnIf62aurjoc16L5/QupPjLqp03dbGydDgr5U6h+dFYllX7zdZBt0oHrNetWSojSE5TF+/GXO99jZ3Wl7lPQ2l+btB95uj3WZm/zx0ce689n9cnGT+o8iiW9+Qay1JFzkW38bfx2Xd7lrOpB9v1AXYauNHBbh+3qYs3MR/s1IsQ8qg4+uvcZ9Ye+vvO0UdZtWci8nTg/49apOZQDKZu9i6BSSWjO0L7ro+NdshazvLYjTS2QXJ1XIRrU/to/vo65M92i45t6VQeDPkzz0f+3HxMHD1/btRC1x7eJL5sromLSo4BZXCjro+VnOWAG+mDiPR+8g847koSWyEpFWNTAx2Xu/68r1kxNh7GGg90C9fdmgO9vSsRuXJ5jj0/+1ZW7eBz/Cbyo87LuaYuXhwdt1eOC+nY6n26qlFcOjruYCMb3BfbcQx0Huqb35i4Nq/hC7uhxKWs2r25JUznY6aIaTTPbB7U9Hyi5SIlMfD8z57O46VBtpGzXFk4xi4+e4tWv2T4lacb+imUV8/cTVjQZG45FGtsNJZzC8fYJebRvNh46YF4XOmJsjJYF/IMnkGjoJg0iPFiOZRD59qMhD44PA0PWkVTHopjCuNdlot1hdxYYoDYXj+buvi4VUZilY3N9kK6pmMGYUOK37HZ0D8w5npaaSzLqr3p+XNOPryMboqdJg5Qud6aYdbn57oNp2k8VxNPPd8+/piDBHRvLbQDCNmIXOdi6Dl+63szH/HZwjF+EdCNGixzjUYPUA1dNXuEbyP3sukuQ+dlVHWfKfehzcWFXS8iHGqZT0+93yTGfh7vxdIT69C0QdMgj8orHDmu1wVTQ2B68bYeTl8sHeeozQ065gvZ1MW59oOze/5Dv4Pp4Rz94tqex7/9M0OPm4Jj91g5cU+j92KxV7j1IX2xdWxXxw2Vr5t9yu56Y239bqdmnr8Xtma1aDdGjhcEUTf1c3L1+bhcos1Vg5Z0Q+lLIK9cr3umna1E5F8R+V0SnsYa2JREZsEdwWh4hgJpKA+Zy/qhOJ9wjJ15zgB/d9V8rEiQ10QkoJ7uBo1lZgL9YljX1MX5gf89atUZF47E6YN6Y72L657u2LnhK/uhIES5NJRyZAEJkyddeomkB83PJYDGeq/Q7tffZJ0bQsJcFX6Hqs8CEmaRjJB6mL4/n0kb3Xlk/TMa+3v/pjEiCj9CaCSnLLY64Xx9f/ZN+/p0+fq8zHmWrs9jg+3PaMqxJo+G21iuPYUYQhHSl3/D5jYgB84xZT6ys9hG1pW+61uv6TqWUFioHHho6uLjlBislQ51brgb8VPe81ON3sTtN4NMch/wJiIfxyw6oK37hbXROLnodZiFGWaaMZnP1kY81816b57ojXyoTW4kN376UG1uKmbjmH3OMfUJHPPTNkUHHra9tsd15cB9fOdhyugv9lynL7ml1cy6CN3pvi+uFj12sf3p0WB79D4vjvWafMQJABuH5riObYzempG7yw3hohcMAPscbTSGNko+G6KQYwOQliGbxh9tmHw3Rn0bSxpJAFMNbkQONVAajVJo8QBI0+jGpKzaS+nsk6PZMPVdaxAAgmSzbKjv1hUA4IK1XpjZ4P6XvWBs9fR2Nbz0IgH4MqmxMfszH912dGqj1rOHehXLfFcA8Rk83XFfD3LgMW5E5A/5daOtlaxnIaxGHPZ+s70lPU4AtlktHQrQ0izFBQCT9OpZRtpQiqx3rqSxtGDrHlCdpw1o6NWzjLixFBFey6c49tlzbRGjsmofZeAeT9anO4ZK60vt8PqtZD2o9eLo+MyQQrLGNJYHX8PN8mcI01xEvu3YStbK+n2pPCQBW47t7mh1pWZNGX35L8uq/W7+OlrWZUNG1xYZ29tY8gVIwuuYRrOs2pmjeIBoZbVveMYPgNchv7vLPCgQq505y4wblaSVVfs9xMGYMfeb699j5HYlzrZ1GLG31XlTF8HtLWV+j99lvYfU25EfP3ScPveM1WvgfN+cEIW8QLEPfX7/gT1Rq0v9jWBl8oGZAbaYHs6ap2m+TmOxscB2j2P0/vzGXpPtuKyUDtm+YUKUe2MpYq/BHHotXV+PABruX4R0jVzHsqNRslJ+Znsn0DGN5a6c5WJaSOELtQHzaUBDuDzy//ue78nHdR96jpBi2lQxuI7FLIDjnK3fJZTjWNs3HNYc3Nly6ta/Q5nXo0mvuH1Xp/KprNqvInKpHceG5wf4iev8dSgN3K7jjf29f+pZ5tTjivV3bepi1dTFu81fU47l8RqE1lA+Sb4Npfp5+3IVX1m138b8uaxKh1IU4uh2V6BfyO2lAdVoXx8X57dxzLENWk+zMX+IxjIBUxpM7S+rbyH9viHFEqCZ4+PPh/6BHznLHD+4UOsOx2jq4p3FPNFcRL42dXHa8+etXseeI/XfZOAXKsd7vI/Qvge+BqCGcjHA82MhB8uJ/bumLq7Ncbnp3TvRuM59v7RNXXzo/rviPbGSEb2UqfGOrGc8FM/JlCLxznEm7aJgTG4ztsqEbmRYQf9ONhvL56Yuzrv/YdMzmXhjXDd1cbd13HcWjpuiUxEJ8qnc19hezrF7wsKXeNCCx67uzUPXZuL34lXsbGComQ/eOYPK/LcbkWmfy/upBzB+aSi7JrwiHiyjsfnqmYKmLt52LNkWne5nOrThPPDzo7/ELhpvl3GE+r3oU7BuSromH/vQz429NlZ6locays7PDA6yz8ZlU2+M0PI1+Nmez9bbthZT7w1br8sj4vggIi5HlHvp0xPe4ryka2ybMXk0fOCHuHR0XATK0ec476zZGczUwJCMWTnK5PZsxuDl+vk6j9fSIVc7LcZ8U2M6H9MEMzF5EGQjgu/kw9A/QJ1lQkJtMHx9cSz//l8sHmuqlXYAqRmz9cpvZvUNwCkb0zP7sNhgWutl5SaCXuWo/cV+kxE1YqmxnavBfj4azVB72BPMPZ0npN60a4M7iZNfw836l31/tvdNPGTfGAtfjuh7EbYWRfVlazGQwfkj2OdqlfdU2MhZLiwcY5eoi6t9CrUnNWDh14/dxjOU1ziL00d/KogfuUDxoJ5QqPeEC77WMLUywNPn5GMCdHXcVFhYUPfFViz7mJHqwa88oTScU0bay6rdbBRnY1bLfMB5bUw5HGs18c+Pqp8dsMDy6DpOa6Phh4KdWjTu4rix2qovnPQl3J5f7dB8SqMzsic2n3qMreNtrvui5899F8vrePa5hhPuCydlfUP1mYiyT89rM2qGkIjlhTQ6wa7M3+cOjjsT98s3aXr0MWVRq8c2ZirjmFVopnzpjrgfkqffZ8rMMxedhKYulraPqcFlB8rVthLzyI6bmyC2SD1wY29GZa0OvIU6ZzoA19oBbPkiAQ66UpSeoT5z+ZV9lgC/LLZp52M3tlf10uZpVH419A/QWOblOZQvqJbQfn/teLTPf0BwD3Qay0yYkeXgbkAXjjUAoTUQmrWuGufto6kLZ6kiK7s7IklvIX8pbBuyrqHrWIbwHU9ov/8uLmKcckway3R9Mb3JXvvouOC7TnLkQsE+Zg/1+gw8XauXGBrKDd97Ox0ydTR81dTFhSk6nk881ljnTV08M8opIp39j0LSWTXc5p5MXS9ja0Y7+0W5uH8+DF1X0uWWKTE1kl2mimHwBnXbx5gax/uJ5RRzE8iPqntfjVZITxwFPzZvi0m3l2vjAevqHnCxmZhWPBHe2zttHoYjdluw9vs7vUHMtCtbGxjt3IwohBsb9hxoRA/ux+TSkd0BB/cepyqr9kxEtqc0ettqIxRmltb2VNorVwX2VrfTFOm95/OhXkWvD51GEoBPOxuMKa9IEayK7b0nACB+Owd4Nj27EQ3ScmpADo0eBACAvgsZ9F2X0Ourbc+4aCQBTDaocTuU6NbIAe5JdG+cNnXx5jMeAOka3cBt9+pCWPJLMw4AaYuiYYmpB3kgNRBlbSQAAEBfwXQsJ07oCKIaaGLp57nLhVYAAABc0xi/tjkBsks1c+lwRnwQnWYAAIBjnHYsp66phL3obAIAgOBY71iyAK9/FOEDAIAQWOuQlFV7IiKvto6HYehcQsue9XcP4n4FgDRZadwdbkGFAXhYwydboxPctwDgh4+tZSc36Ax9B+e6qYs77SB8SfT+C3ppKkfXnNW5AcCx4DuWiT7Uk5BLFijDe1C1A+b4etO5BACHfHQsd27q2EeGD/SolFX7PZfOZWZmO757V01dLDWCsWymHQAAYJrfxvwhOpVx4HPKxn1Ztd83f7k6idkBCwCAvQZnLOmsxIXMZX4639Hnpi7ObR23qYvnsmptHS54Zrb7Zxk+bLQSkS9NXazsRhQusyrIrYgsBv7RNxH5u6mLG9sxhaas2k8i8of0u59Wktk9lCPTxnyV45OfV7KePxHF7nyDOhx0KuOVaueSe7IfW59/WbUzEflm41jbfN6jZdUuROTe1/kO+BJDpyqQzS5Ud1fbR/teSrVtH2vEM+HCdQfe9XNqyD0Q1OQdHuDxS7EB4r4c5K2pi1MbB7J93V3emzGusav5XY3pO+X7OkV0bZZNXVz5OJF2p8lkgm99nKsv5fvk4M58wXQsI/oy4YjUOpfcm8PZvAemXn9X96PLzKoGxx3vJxFJoX7W2ovTRlm1X0Xk0uYxNTi+f1Q6li7Wz55ynUK8V3b9PkHMCufBnZayaheJzCDGSOY7vWrq4mLqsboNV5/OnOsXG9qrfsxErCftOCyz0smIMcN9TPd7kUJyIaTveUixbLPZ1g9xsGNp6mqQlnsRWWoHERnrNTgB7FY1tz2xywy/qDy0xmwrmaOEspPW5XJtNh2hGDuYIY1ElFV7I+vJfaGz3tYfcyxjOfMRBPxipri+7SE7rbfesmq/NnXxUePctoScMQiF9gSTkCWavT0q0g5mKJ3K6Nocn8/9vetYxnjh0B+fb1iaunin1MAHVRM0lCncxwHmu06ncgdzbbLrVHaZ9W+DH/oP5ZkVShxj+Ip9Z8cy5gsHxMx0Lr1uaxj5993KbNARViJyIeslcN51/zL//YtSXD+J/LN1imvzk5OQr0cosYUSx0Rz1ycYvaUj4seQeJg2tYo+G7Gyas+OLb57oI5x8FqM+2ZQBno/ng9ZmNjU465E5KbPz7v6nBN5CDrBtdmNZ8J+3DP9/dKxDOni9b3BQyncHxDvjQRS9FtW7b2v9c4QtCcZP/Hmc1m1QdzPLrje7WLPkiCTJncF1I5PnpFaVu29DN/R59DxvF+bsZ01jRnqoXUuQ7iXlWMYPHlUe+mjn26eQJZZuJqyHI7CbNtJu0GE8KUJqREZytP1c74zwz4+748eCxHPxfEL3NB7UeH7M6l98kGxTfG6rMmu37PHPRzM92ko2x3sI3rf5yE8w2w5sGam19/R8lrD3vt12xlL1U6ljYu5mW3r40awFO87Ed0vZwozgwFP7s0D/hiVDqjp/Hul9WK6fd5jbaiZ/e3DXVMX17YPakaWrjw9K6Jblm5CVngmB2abx/wyYo75JuvSKucLo28EU2Np+4I2deGyRs36Dg+O4z0m6pnByJfy9+aQPh3QBwcvdN5KgkIb6egRj4/Z39dNXdy5PEHA97xvVrat1Fx/dysOpzE0dXHhq2zwx6xwzRvV1QV1eFyrncoOV8c9yqTLgeiE1sEZ4NIs9dL9S71WvI+Ir7lTrjuVnfM4v/4Bd16XZgWGlOYGLH2cxFdJVzAZy4gsXR24qYu3smpdHf6YVwngrQ0YI4SSEkvmqW2/l5GVdgCp8/198FVa4rmTfCGOs5a/iXitPdllpXjuMf7RDgB58NxJGj0BLSSdtSST+H02mUztOLYEsUYn8sJLlh0+spaboXDNnQfmiuceI9llVRAOhVmIamUYLjR18dPC5drxTBVY55I2cLe5dgAJc7rk1z5aq4G4VFat820x927pmAIz28u2uYNjiohIWbWqW4sF9vDKlsLnkER275Dt3XFMZ3OpHdcQIX0/fTycsF8sq57Y0tTFuXYMLnn+bs9cnyCIjqXDi+qk8XMYr2ZJApSVVXuvtHhzUtnKvpq6uNrV4dzamjEoPe6PlY84RGQWUke3J+d1bD6uSVm1C9fngH+e7h0v39lgJu/YXO3fx4KgluO9FZFPNo6F+KS4IoMPrie5mGGwYwtu+1y0+iizpIjPrUC/m/Oq3Ufdz+BQHE1dLHuuQTo1Hmc713j8bKmjVeDq3jEvI87v/Y33Ib392GikYmtUI3zrx0ShfOYxdyq3bV1TK+vb9bFZtNrE4GXXr7JqT47s9vVRRL66jqNr+5522LG6kQk1nr7WgLTd4Vaoub7xeb4jVpon971uaOdcX6Z+Dgo7EYrIOmP5p++THjM0E6H9oO6c/+jC6cdW+UeQHhWXgXIipU7lDosdL8wuFiP/SVMXp57aojM58LBt6uJB+37VbpOPuBJP2ZuxHW7fGaauxNuGsd7Efwftc1m13Zeog/0LX4uf9/FeAp/JFngDte0ksniRn/OmLlRmWCq7PPLdnLRjiudt31Y9fobdWfYwQ+IzUZjdHvpnQqdyN48vjYdE078IpsYSgFs8NA66NbXOyTCdyydhUuAvzBDjTSwPah9oHw7jZa2/IGaFA3AnlbUcMfzh39TFOZ/9flwbEVmPYnAdekjgOr2Jh5pVOpZAmj7QoUzLlM/S/Nlri+EkI+fvifndcyyNGS3ie+Xa19Jy70XkQUQufZwMgFOTZxEiTDYeZqaG9E5zYkjIEtpv/pijk0xxWGz3iu/O8HsR+VvoWAIxyvoBEVvjPoaj9TmXYnYdSvnajdW5r5JaXzjiTFuwTN2l83Wzx9L6zN83dbHSXpoCPywloMWWERYeDLttX5cEOksfmrp48XGi7rWL+LpduNjTuamLazHlAyEt5TIEbYZ7Zk3ZoF5ytT93zVnhe5c9CfkNwKY9H/5mseUgblB4NWnJG6zt+l4F/n16DmEv5B0d9KB2FdrQeGju2oVJa/HpA2g/lGm+qGl3Jru2vyifRERlyY2eC6GrxTfR6ZGdMlQXTg/phgR889iuJFED6yl7F20nySRGvombTqe3XaVgl8Xa5pemLj5YOI4zezsUU7fOsmDwcFBZtZfieSszEXmW9VDMwY7jNu1sAJ1JAABgW9/tpVSHplPpBNGZBAAAKRvV0fC8fVlSnSHPReAMmwAAAG+sdNpcdTRT61R2ObpmWS8/AwAAdDnpuNmYLZdyp3LDQufyziyJAQAAoM5b521AJ8rbGm4hGHBdgp8JBgAA8qaaFdxe5iOHLOUuOyZHZdW5BgAAUFVWre9lhXopq/abmaADAACQlSgyhIeW6Qkty3lgaJssJAAASFpQnbINk4287PnjwXTYBk7G2bulJQAAQIw09wr/YeJ2ht8k0A7yEU9l1W7+OYi9ggEAAKZQ65BZ3n5RPWtpc13K0Ib3AQAA+vCasXS4NWSsWcudOp1UlhgCAADR8NIZs7Fg+jHHsnxmpvZcRH43fz/mTUSeReRfEVk1dbE6cGwfW1x+bOriwcN5AAAARnHWsZxYN4n92LYRAAAEyXrHsqzaWxH5ZPu4+BW1mAAAICRWOyZl1T5Kv2FmWELnEgAAhMJ2x9JHrSG20LlECMqqXYjI/YEfUV+9AQDglrUOCZ1KVV+aurjRDgJ5GvHdZ7UDAEiUlY5lWbU3IvLZxrEwDllL+NYjQ3kQ9ywA+OUjCfibpePQqVRGxhg+mSXERncqzTG+m84pACARkzMGdGiCctrUxZt2ED5Fev+tZF2+sFKOY5Syar+KyKXFQ2Z33wKABh/PzCD2Coc1r5LQDkQJm4vIvLNX/Lbzpi6e/YUzmM1OpQj3LQAkY1JjHmm2KHWrpi4utIPwJZN7MJjZ1C6vNzWXAOBW0BlLM2EH4ZlrBwDrvnWym8F0MgEA2DZl8g4TdgKVSRYvV9/MpJdX3ycuq9bpFq1l1Z65PD4AwL1RHUuNhxqAn5yYDqbPl4iZ4+M/OT4+AMCxsRnLE6tRwDqylvlQ6GACALDT4I4lDzAgTKaDOdeOAwCQL1sLpCNAvARk6ZHPHQCgZdCscB5YQBzKqv0e4fI9QS2TZVa++FOG1Za+iMg/TV3c2I8oXGYHpb9EZOgErJVEvFlAX2Yk4Q8R+dTjx59F5H+53UM5Kqv2XkQWPX70S0z3w6AHDx3LOEXYweiNe/Iw2599iutYmof+o4dTPTd1ce7hPE6VVfso7pc1e2vq4tTxOawrq/ZERL6Ju3kIy6YurhwdOznmuz0Xkd9F5F9Zr/O8UoznVezcGy9NXXwYGYPzZ2bvhpwHeLzoWGbP2paJqXQsLTbwk8Tw3TTLQGnP2A+2Q6V8L901dXGtdO7gjHhJdP4CU1btrfTLVI91MaSzTMcS1sTwABuD+7Ifm5+/i2vu4/4sq/ZJhg/VehPadzTg79bHpi4eNAMI9Np472R6uA69dpIzpRj3U07kYHTHR2a/q1cCIZidd1wvjAzALcs1l29iN0Pz0eKxfhFKdvKYToOvloUydaWhb37x1exE5XX7WhudF8c+lVX7SSS8lxSXbHWUbLWRZdXOZF0O4dtrWbVBfPZ9Z4XPXAYB9wJ9w4ZHtu4By0NHS1fZp7JqL83vHHyncssns3SUj7pPEVl3msy1Cr1T2TU318lpZ6+s2rm5NiF3Kn+Sy9q2of2OJh7VRFwI1+Rox9K8pQFIgMXO5TtZz+id4txV3Zz5Pb+6OLZHm47TjcuTxNZp2mHh6mFqjuutg2+b1vavPoTQgeoKKR7tWPpkLGNucNDhMwOCcNlaRL2pi4uxwy5NXbxr6uLZRhzbtBtVB5xkEcuqZc3TPcqqvU3o2pwk9LuISHjf8dDiEdGNiQXS8zLXDgBBsPqCYTqJfTKYd52fdSLEBj5E5jrNteMIkbk2LmfxqjDZy+h/r9C+46HF06UV28HJOyFfMMCXqR2hECdElFX7anuZDZ8TKXahveqH67RfBtfmtqzazzGuERqiGO4Xjc0yyFhmJoYvQmqaurjZZOrMFzyERbJjm9ByEPd1P1yn/TK6NtEOjYcUd0ixHOO6Tnvb3o4lk3YAN5q6eHY9JNxHKkX9LIfWT0wPQt9yvDaxff/NMj5BiPB+8TpidihjyaSdRKVQZ5MK07nU2jkjlazlTDuA0EX4IPQm42tzEtmEziBeIMuqvdSOYQyf9zlD4Xm61Q4A/2nq4k5xn+woG8mN2LIuGjLuOB3FtZG52d8c/cW+jJlzOzuWrhecBbCTRkF97I0kD8UDzD7F2MF33VnAgn85C+UFIJQ4xvL1Ir4vY7nwcXLo4eUhPGafV9U9kJEcyl72C2qlBk2xd5jQm5cXcYbC87XQDgC/aurC6b7Zu9haMN035YzTFxG56M72N+UMF+b/rRRjExE6C4dwbX4V0uSYEHHP9PfLOpZM7AB0NXXxznMj9igiR2s8OzF9tLm/txmu/SQyeM1QbxmnvnE1dbGSA51K074yPI0QfZMe7YBvZdU+aceAYXYtkE6jl4myahdNXSy140B0vpZVu/nnN1nv+f3S9w+bDGk0s1FtTqxq6uJORO42/25KUha2jt85LtmVPbg2+5VVOzcvRyE50w6A0rFhDu68E5Dz7X2FA3/zPzX1cj90szIBuReRpXYQ2OlK4ljy60REvnU6mqlxsp/5RlMXV7L+rKWs2q8iEvUs/YFWnX8+k/QnYt01ddFraTHFzm+v0YsMLbQDEJHVvt3NzMz+YCZhhdyxfG7qYu8OJd03/0DeQL80dXGz73+aBuVaJJh4EbCmLpa8JQfBW7ZkU1879SERWPtyMSUDZur+rK1fqHRtfkk0HLPJkptZvKl3uHFAnxETc3/9+DntNuCnjqV2MBtDh55MTZpaj31kvAuJIyOFDJRVe7Y9KoC1smrvTWbRi+5DIpQ2eQjLpQMv8vMDM6qO1tRrsdnT2+d9oLG39AFz7QC0XvCnfAadFxOV9iO4WeFjL2ZTF28aX4YJ8S5FZ93Cn0S28wLciXEI1ldHeFFW7XeNRtq0Lx/6/rzmYtc+tilt6uK0M/t+EM/X5m1SrAoAACAASURBVNlyBzuUjl6OFp7Pt7L1eWvdN0F1LG1cBJ8X0sLb6JuI7B3u92SufH7s53NNyz89nsuWwZ2LqTYdzM5fzjvkQyZGic6ozbXvB1hTF6uhnW7xeG0OlXFNOCady36eZT0v492uv0Sh3RjgeV8d5Vga901INZY2s3d34niijMU3iueEJz5gmr/FXyZx5uk81jR18RbAd+frjhj2FtmnRruzsxkqD2lJGsfX5Fo8TFotq/aTmccQi6u+K5yYmt8gyytcvJCY43pdwu5HxlJ7z92hxc1HjtVr5t0E1mIV0W+cEawX7QAwynxHZvN7rAvR7xNSu+XqgTyC0xcKj529UFdc2XZlMpHLsQfolFf88lz3+Z318H3y9rLbHQpXrc1xcFhnDc2moNqyFwfH7IVF8RGrkDo3PTxudTSDyJKMxESvHTytAel9d64QTe1Q7jjerud6LB3so3yuTxpUjaVNsc1wbepiSK2Qbcl8eRIz0w4ATr3anBRkVprwIqAMYS8pZYtt7noVK48vlF6WG/P4+yx9nCSEjuVKO4CBompQEbW/PJ5r5fFcVkWWtdzJUgfT1wQsq6VAnjjf/jOF+zAGXOfxfC2b9pvIeg07HyfbxXGR+xfbB4wtE4qo+VwC6F+P53LB+nddw8QO5txmLPs4KgVyba4dAKajUxmHTcbyq2oUjhzaCSdQSTwcEaWldgBTmO96jJm0nWJcGB1exTRjG5nZdCxnmkHgh5XWiVOqQcJwA9dKDJLJpC2147DFZC/VRpMQtP9POwDfyFbGI4QaS4SBCTwBoaM/TlMXV4k9gJ4inz0OIDN0LMMyVzw3mZGwsNXmBKZzudSOwxLVNYYRpN+1A/AsxrrebCXdsYww6+NzFjCQtE72cqkdy1TUXE620g7Asrl2AD7Z3EAF7ql3LMuqnTk8fGxZH4a8oNGJ0FxD1blNBzOxIfJdlj5OEmkn9x/XJ6BkAVj7LYCs3jfl8w9SVu29dgxIl8b3MYWJO31tOpgxdjJ7dOhYVWIPmzu0HEDJAkbx9VLi66XwN/GwcGxiFi4O6jhzi3jElmWP1lYn09s+uq74fEGINGuZhLJqb7Rj8Cz672YPSb2U/CYB1Gq42IoswoYvqswt7FO6Z5MeBu+rqYtVt6NpOpsr7bhCxlJIv/LU6fORDAom++1zj+sdgrkOU5VV6229cvUaSyOq4WXbHYBQanMCKIvIltaLUMzD4K6vWVMXF1sdzY8uz9dHWbUhZbRZCulXTjt9vjoHEW4u4oTP6+DhGeBtJ7dQOpZSVq21VLCPh7TlN9NQ0uBz7QByU1btpWJ2faV0XmvMIuJzH+dq6uJhR1bTt/mR/+97y9nXsmqfPJ/zJwO2wfTyYuD4++xzm1d45ure8f2MCaZjKSInNobEbXZQj7DyZhrYkH1ua6OpMp+92naqTV2kUrv0qJjxDWoiUFMX5wqnPTOdO2/Zy7JqZ0P3VW/q4sFlTF1l1VovbQrsWQFHHIyIer9vQupYiojcl1U7+o3MvDn7bNwmfWABNhRz7QBSV1bt7dAHoiMr5fNbp3ldQ+pcKno1n8HC1Qk6n3HoNekzm/eiz/uae1mfrc9bqz18r3HSI76WVftm9v3tTesCmvPeNXVxPeLPIWFmiPazBNhhTyhb+YvOd+tCufBfy4uIzBTPf99Zlu15ShbV1BTaHP79IB47peZePB27wLcZgaOOVde5iHgv9zD3zktTF4MnWGr3L0LsWIqsh8W/i8jVsfXHTAO28BHUAZ/Kqv0kIh+OTYagoYiP9pfUgVy2R3ssq3bzz6Mf7rFp6uJDQPfsWUCxSFMXL517wpdXc87rpi7u+vwBxWu2VDpvsJq6eFa4Zza6me+D94+Dl7DRQu1YbnTffEXWU///Hwnk4u3wrXMDvsh6t4ffJcCMFfKVSwdry2vnuzl4hAFJ+SI66zffllV7q3De3pq6uNKOAXsFf/9shN6x3BbTYu4ziSteZID6KRH5b4Rh41nWw+ZjhysXEtiSaU1dvAspUxiSpi5uyqqlbf7VSjuAgHktoYhdbB1LACPRqdzrTH7OaG5bmb//2/lvWh2THLPNLqjUzYUs5brrqZRKKKIV2qxwAA7QqZxkbv763PlLxZBJjXzm+zV14Xu9z9DlUnc9xUo7gFjQsQQSRwcjaxrrWkaB78V/Mq27HiSRjO6Lj5PQsQQSxsMzb2TmDuP7wTUYaKkdwBRjli4ag44lkCgeGGkZ+3lyHxz1RTsALdwbw0Q+a/7F14noWAIJ4oGBLu6H/Zq6uBH/e6yr454YJ9br5itbKULHEkjNl1gbPuxn4zPlvtjP7A6UTeeSe2GypXYAQ/j+vOlYAolo6uKdyb4gLdZm7NKh2M90LpfacbjGPTBdZEPiD75PSMcSiN8pD4tkLW3P2OVe2c90GLwNGfrGZ29PLNeyqYuPvs9JxxJdLDkRlw8mS5nl52Ya9pV2HA4tXWVGzLXrtW91bpq6eIml0zBAir+TutCvqVZ87LyDLu8pcwwXemPm02ZtubJqX0XkRDkcm05dvzCY/dKvE9n60fq1Mtti3ovIwvaxfaK9cCvQ7VPfhmymYFsIGcuYahVc0848/aN8fux3ZbKTPCR2aOriNJUMpu8stLlu0S7+bK6Xk4doUxdXEX/nriOOPSrmOi+14zCuNDuVIsoZy85NvxQRCbDX70X3y19W7aWIfFWKY6VxXuz1oamLF+0gYtLJYJ5JZHtBa3YCzHf/XVm1CxG514pjAK8Zmc1nE8kz6rqpC8ocPDNlK1ea90goLxJqHctdF6Dz5X0SkTPvQfn1samLX4aezX8LMbUOt1aJbBkWBLPjzKY9CXo4M5SHgYhIUxdLCftF/8rEqKLzjAruxSWk+yhnZmj8RkQ+ezxtUEkI7S/J0YdpoI3bWMH+vrE2ShHdHysR+VdE7mKdbOPjWru+DwPqEDibmGNbANcs6GulPMqk2m6n0Ca45LqDOeba+PjMfgpK8SH9pc/6exF1Irp6NYqKv5tqkS+gzeMIifMJOT6UVfsoInOHp4i6TXLcmThn//c4WXzG7xztDMkvvd2yam9F5JNCLCID3kw13xKPGfIWQT0GEKayauci8peIXPb8IytZZ6WXIQ1L+WCu1WcZ1uFcicg/mkPbPpn61T/l+DVayvq6rNxGBE09+1pBZ+v32duxUM4Ojnpj9fAmvUuvbOs27ewrnUoAAGDbwc5FIFnByUWp5m36TxlXwP8sIv+zsVWeQkHvL+hQAgAAV3p1Msiu2aF8He/MgsgAAABODOqwaXSMUulUiuhlLFO6hgAAIFxjpqrPROSb/VB2emnq4oOnc3nhs3NOhxIAAPg0uuPhY4eGFDtGZdWeiMiry3OkeN0AAED4Ru8V3tTF0nRgvliMpyvJXUgcr2N3SqcSAABosdYJsZ3BTL2DZHNIPPVrBQAA4mC9Q2KjBjOHjpKNNTdzuE4AACAervflHZOVO7qfdipGXp/kJjQBAIA0eMl4DdkmMrcs3IDO5eSF4gEAAFzy3ok71JHKrVMpcnRI/KGpi48ewwEAABhNtSO31ckcted2Crauw3NTF+dqwQAAAIyUXYbQJzNT/k/Zn5GkXvKII7sVPYjI301drLwFBAAAAAAAAKdIWI5UVu1c1om0+cRDvTV1cTo5oASVVXsvIouJh1nJuspiNTUeAAAAAAAAuEfC8oAj1X1W5Tgf/pCyar+KyKWHU901dXHt4TwAAAAAAADoIfskWVm1lyJyKyIz5VBIWhqWKiunehORq6YuHpTjAAAAAAAAyEo2CbKyas9E5KsEkJg8JPekZSDJykNIZAIAAAAAADiUZHKsrNpbEfmkHcdI2a5p6XMKvgPLpi6utIMAAAAAAACIXfQJywgq8sZYNXVx0f0PZdWeyHqDn99F5Eymb/bj24uIPIvIv7L+/Z67/9NsYvToPyynHpq6+KgdBAAAAAAAQEyiSliWVbsQkXvtOIAJrpu6uNMOAgAAAAAAIFTBJyzLqv2uHQPgSu5rlgIAAAAAAGwLNllSVu1MRL5pxwF48KWpixvtIAAgVKZPcGb+2rZq6mLlNSAAAAAATgWZsCyr9lHiW6MRmIRqSwA5K6v2TNZrGZ9YPCxrCQMAAAARCi5BwhRw5IykJYCclFX7KnYTlMcsm7q48ng+AAAAACMElRwhWQmIiMgF0xsBpKqs2ifZPbXbt/OmLp61gwAAAABsSmXWchAJy7Jq57KeBgZgbdXUxYV2EABgS1m130Rkph3HDh+bunjQDgIAAACwgYSlJWXVfhWRS+04gBAxRTxtVJUHZyki/yN5ZVcsg5K0twAAAEgBCUsLFNauAqLDS3S6SFhG61lEvpDYPC6g6d99fWjq4kU7CAAAAGAsEpYT8aIODHLa1MWbdhCwi3YwSS8ick0yM+gp4MeQtAQAAEC0UklYvtc4KS/pwGCvZdWyGQ8QvpmIfC2rdvu/Z7U7dVm1lxJnslJE5JsEsGQOAAAAkDPvHXKSlcAkX5q6uNEOAnbQHmYv2UGIBO7trBLMAAAASAcVlgOVVXsiIq++zgck6nNZtf83L9JAEh63KjGTTWBGaCEitLMAAACAkt98nKSs2pmQrARsWZgREwBpeSyr9rv560k7mLHMruAAAAAAMJrzhKV5cfnm+jxAZuZmQwsAaTqLNXlJlSgAAACAqZwmLE2ykkowwI0ZSUsgC93k5SftYDKx0g4AAAAAyJmzNSxJVgJezMqq/dbUxQftQAB4cVtW7a2IvDV1caodzAHXInKrHcRYTV1caMegzez0/peEv2D7g4j809TFg3Yg6McMvPwpImfasRzwIiL/iMhDUxfPyrHAMMuMLUTkdwmnbXqRdTv0P2YYAGExbcZnWbcbvrFZrgVOdgknWQl490LSMj4J7KSMADR14eRZPlVZta8icqIdxwjJb35kOvC3InKpHIpPdyLyd1MXL9qBpCzDe+u6qYs77SBSYDZovRWdxIIPK1nfLyTAMYgZQPws0wd5HmR9D75MDiowZdWeyTr/FEO/81nWfc03lydJZZdw6y85pqPCNFXAvxVVQXEhYQmbQkxcRpi0/JhSpV5ZtQsRudeOIwLLpi7YFX4A099/FJGZbiTB4p7aw1TYRluB70h290sCfWAn711l1d7IOjnpU3T3XyrJuA7rg+WpXCMXCcvYGx8gZtE9cHJGewkXQktcKnW+Bwvtug1lEkhPEleCOHTJV9v2wcwpa7Lqo5HUtiKpQbSuBPrAVhKWprL41UI81oTYH4qlL2nJc1MX51MPQsJyhwQaHiAFV01dLLWDwHG0mXDISmfHpoDv92iTCGYH+ZDXAUxNFjMZMnsx1JTU/URFtxfRPq+2Bdwn6GvS9zfk53coCctUEm4T3TV1cT3mD6Zy/azdjAk0OkBKPqS4PklqaDfhwanrNXKGCmia+OhOoKaArh8SSTixnFMwoqroDbEyLENR3TNdCfSBR7X/MTzDNROWZr3Or1rnD9nQz4WEZUcCDQ6QnFBGx7AfbSc8Ca7aUuTHAulPnk8b+u7qO1HxFr7YnrlK3z/0EPK9RJIyaFFtAJVAH3hQwjLkisptGm1QDIncUPT9fFJJWL6feoCyahmRBQJUVu33kDu9ALw5C7E9MDul/oiprNpbEfnk4FQxV6DQgYdVCSQJoIC2KAq35jkqEuDsilyR5D+MZ9Jw5ppFOQA/xqSEpRnxn1mJBIB1ISYpAOgIvT0w07N/maJtKsEuReR3WVcndF+aVyLyJiL/S2ntXjrwsIldmTEGUzOj9lpWrUigMyxy4XAgNnr0cyY7Mdcw2Y25NkYnLM1oAdOTgMCVVfuYwhpbCFqQFWzmJf2zUBXyg+ncRFV5YSoxn7Xj8CGV6TsIQ0xTEBGOsmrvRWShHQesONskhkIesEwRVcm78Vyy7mtZtUl/v6dUWFLaDMRhXlbtZeqjL8A2s5bTL+s58TImr2XVRpW0zAHVBrCFF0KMwX2TNhKX/vA8/xWbu7kV+iyqKUYlLPkSAtH5KpY22QJi19TFlYhcbf4901HwV6FNCALrW8EWBmMwBksG5CW39e98M31KdGTaz/bOfLc/NHXxoh2LTb8N/QOdxXwBRISBBmC3pi5OzahkVp132gR9JCthQ1m1M/N9XmjHgniUVbtZA413u/yclFX7vazahXYgKTHLupCY6zBtDNfEn2+mmjUZgxOWwsKxQLRM9QWAHZq6eGvq4l2qUyp2IWmpjmQlJjGVK0yzwyDmvqH9wT39ADvMJlVz7ThC0RlIg39JJS0HJSy56YDoLbQDAGJgkpZZ7KxppgPCM/pUmKJTHUflCnrjvsEuptryUjuOyH3VDiAUZdXOhYE0bclc/94JSyqzgDTwkgz009TFcybVlkwH9MxMBQdGKav2RqiOw0BmcIr7Bvt8Las2mSSHT7xb/cckKx+144CIJFLxO2TTnYWrIAD4VVbtbVMX19pxADFo6uKd6cTPtGNxpazap6YurFSUdjqrV01dLG0c06eyar+KyKXjZHXqnfkvTV3c+DqZuefmIvKnJPw9FfmxRtpcOw7EhfsGPc1S3m3YBfP8gfzYCTz1/g0865WwZNQASM4nESFhCfTU1MWHxJOWZw6Oeb9ndsZ1Uxd3Ds7Xm+lU34qI1hQ4F9dbk+qulE1drERkJSI3h37ObDDxWSL9HifeBsER7hsMRdJyEBJ0/6FCF9YdTViyngWQprJqX5u6yGpXZGAKk7RMdgCvrNr7pi6uPJzqtqzaY9PQX2SdgPo/5u8vhxJinQqHuYj8LlQSeRPTS62p+F3u+n/mngx2PVdTITfTjgNx4b6RZxH5R0SWTV289f1D5v33L8n4WULS8jh2Wf9Pyv1ji1bm7zPJu10epE+FJQvI7vciIudDHoDbTEPH+qC7Lae+PJvqnoWdcJJzUlbtyZT7F8iNmR6eaqdsISI+EpZ9zOS/tvuziEhZtVqxIANmmZSfZh6YpIV6P9isWTlXDiMGDyLyPxF5sN23iXHZgczumzdZv5O92DhYUxcPsr6ffmLWH36SSO6BqWwuF5Mo3uFlfZ9ox6Bscs5im+l/3AsbpMnBURPzoPvsJ5RonLpM8IQ+wu/Ym+uKP6bF/IrRUz0JJb4uzJTMLKTcTttoD1JZcN1l25jQd19knRz6qB2EL/v6Ea7uF5MgYaOUtbuQ1982L5i3MrGfaakdzuG+CWF5kSAGNRxzsh51As/BF0n0nXJIG5RJW7NNZRmcXNciPpawjL0hscV61ryPjK7/eVMXzz5PmGnjuo/364+1hL7jWSUsRZL67LZNfgEkYXlcwvdP0Akl20xf4puInDhMWKZ6rxyj0vd2YWgBiKWEZar3zXOoFX+myiy19YlFxM3zMOF7NHoDE5ZZfI6hFfjkVFi4d0p4j/WlcqDaWdp8MRJuCJxWqx5izvuOxKWIrKe2BNUIA1Dzh4ioVqxk4ouk2dH8VFbtrurjB1nvHJ7U4JjpSzibGWJ2rM+JWr/QpaYubqSzIZTZ9MvZ5hR7NjuLnfNZWFNtEqkpJi5Z9x67lFWb1H2+Q7ADZ93nSsK5IhE5vIZlktPd+gopi27WTEspsbZq6uJCOwiRnxKXWa91WVbtWWovkoBjqSac5toB5KCpi5uyalO8f/a5FJHLHuuQvsh6g4wHnkkioreLvTch9bd9MVMJf/zeDtazX1g8VgiiSmR3EpcpJRGyX0fPozdZT8P/ZQ1VG0xO4V7sPF+SXbsypmeTyRXNJYHZTbvsTFiaEtNcBbkWUyexFvvDT2XNh2Oaurgqq/Za0kkKD0WVJTDMStJMWMKfK2HB/m0zWX+vPvdIbr7Jesfv/6W4JEXq1ZUxvQy61t29fmrFUmr3Tcz3SWqb9JVV+62piw/acSTI67uxySn8kuvIdX3EHb6Y6sWomH5QUm3Oxs6HQIq/aE9R3KCxfj6xdDpivb5TxfL5pCShey27NSxFkvr8fjK1LUhllNdHm8hGcF68yLp/t1SOY5BU2xdh3WynUrpvUumX8pnsltJ1GSj45Q36SHQNxY+uKlt9Su279dv2fzAvGjlaxZCsFIn2AR7TiFz0D5ExzIszgB4yflbCIlOtEs1Ux0jNROS+rNrvO/76aqbHBSXEmGxo6uIdyUr0Eem7zk4p/S70fSa5Mm1gKu+ZqSUr71JIVoqk1eaI7EhYSgJVEWOEsqZiX5HdiKsQp4HvY0rll9pxKJhpBwBEZK4dANJgXl5W2nFk6lJEXreTmNpBSXovgrH1W6OU0JJe19oBOBDVe+YBybVNHnw0icqldiDYr6mL1NqdVBLjOxOWOYr1IfKiHUAfsSWDRdZrWmrHoGHP7q4AfvWXdgCOrLQDyJF5TibTuYzc5VYC81YhhtSexcGtDZ+oJJJJTV3cacdgW0LL5sy1A4jIm0lUJlG1l7hz7QBsi2mjsmN+SlgmNDI3SMQPkRgSgTF/WVbaASjQeDEDYpTklE0R+Vs7gFw1dfFmqtCYMhuWT53kZZazkKbihR0QkTzfK3J1ldDU7+QlvFRJEgVY2xWWSYzM5SKSadZftAOYgBd3AL9IeXCPxIK+pi7OSVwGa95JXk7azTkjK+0AEJWVdgAO/asdALz4kPr0b9YyjUMq9yFTwtN+MIYg5heumKtDR0s5GQNYwuAenOskLpObqpSIJxKXvZCkAZCLi0gKioBo/EhYkqQAYJCMAfYoq/ZVOwaHYq6IT1ZTF89mHax3wlqAIXoqq/a7dhAB+107AADw4CHiZeaQoLJqZ9ox2NCtsMw1STHXDiBxc+0AJkh1Uw0AI5RVey/prl0pTV3caMeAw5q6eNgkL00Cc6UdE9ZMteVCO44AzbUDQFTm2gE49Kd2AHCnqYtsBhRJzEZjoR2ADUwJj5h5eQ5dzInwS+0AtLA2CfAz094utONwiLUrI9TUxcVWAjOJBdYjdm+pb7aycIxgkMj1JrndtRMz0w7AgpV2AIHKJlmZooSfUTHnYX4gYSnRJP52WWgH0EdZtdFVJLEmVRoNHGBDWbXfJJL2dqycKgNS1tTFspvANEnMDxL3etKxWZRVezvxGP9YiSQcsfazY5PEZpERv5ftVVbtJ+0YLGHpmB3YsDB6KbY5C+0YbPlNhPUrJcIX0bJqv2rHMECMa749aQegbK4dABACszbdTDsOx0hWJqypi5fNBj47kpkXQsWMC5+mrB2Vys6eXWbKfHQD2DFJaLOPhXYADkwdxAgCU4F3WmoHgOlMcUJKkknCvjd/z76aqqza76bzHryyai8lsunKZdU+NXURxU6niW+qAaCHsmqfRCSHSusXKgPyZV4+V4d+xgxq/yUJr9/qyDcRiaJf6dFrWbVfWC/XqZUkMOgc03vZMWzKlbamLnJdiuVZ0uonz8qqvU/h80ytzWFKeEcMH65ZWzCm6sqNs7JqH7WDOMaMrvBSBmSqrNp78yxIqRO2V1MXH7RjyI1JhkejqYubpi5Od1VomoTCqTBNcCczwDxWqpXPn6m2dKepiwvtGGyJ4b3smBR+h45T7QAQlGvtABxYxFxpWVbtSWJtjoiYkd8Uf7EpQh3RM1UOsVfDvjV1EeQDj+/BLy6Y+uFWQvdc9PdKQp9Fb66edWZgLfgBqmMcXp/uvbZKKcGwj5ke/ZeIpLKOW29T7qNM2qWPVHn/vLHb1LbHvHDPpkcVjPOmLqJah9ck5JOasWX7mZhK+xZq3sCHVD7DXWL7XM1ygVHNwO3r/fEfyY/58i1DKglOqEHYZP5Pm7p40w5G5MeLVLSjKQ79JaxthoSZ5R+yrPKJrSOWsHnn+R7sgN5UZm29a9lRkWEWhk9mrSXLLiSB5P8RX8uq3fxzNsnLboLStqYuPiT03iAi8lRWbTTPrRT7FrFce3i3kgSWoNhl04aGfu+bjYKjmrkz1HtTCYFfLUwnWnVUL+F11F5D6Hwk1qGzLclRGuTJVDs8SVpVJ6Not7vYa3sqT1ADp66YDWaWIiJmd+3sqjD3aepiVVbtmySW/Digm7x8E5EPoQxuT6F0X19JYgMBpn0MdmAn4Xe2pXYAAVtpB6CpqYuL1N+lO79fMMVWIm4HvULzLpFpxj54fXFIcXTuiA++djekorI/EhtuJfSQD2ZKuBmE+yyJjvhO5eM7zZTwwyZ8759j2bxuigSf0ZPbx4SeFVO9ich1iLuom/v2ViwM9tpqezJ4l7hu6uJOMwCzTm2Mewv0FuCzMCRZLOtyiNmjYq4dh2cqyctc83bvMr3JpnKyw2HCI3NDWU9epriWjA8kLN1KpLOGSPj6PpOwPMzy934l62m0wYz625BY22gjYUkfZpiViPwr62TCauxBzHU/k/V70h/iqY9us+1J7Lt0iLeK3ATXCN3LZb8hkXsz+4SlSDKf5RROljPJqYryENawHOdzWbXd7PaLrG/U3lPHWbPpoG+dKUEi66kI10M6IXzBAeCHu6YuUtzNEetEyuvWM1Nk3S+5zmU9wNQ1dfFWVm1yU3wdmpu/Pu/4bmSlqYt3mSQTTmR3W/ggIn8PTVybgbc/JeN3CYoWMMBHSbzS+IivuT9rXMrlIQZgBDorbtH+wjWN7zAVlocF8r2/k/VskaAqM1Ocwmq5Wm4hJC2T56LtCaTdQSQ8LR+Twj1JhaWRU+Ux/KLCEgCA9FBViUM+icinHhUBK7EwtXYXs/bbrfCC01tTF0vzmZG0xCAZVVpiIooVMEZTFx9oY+ACCUsAANIR7A6qiNJcmFo7xRfbBzRJy5WktTERPDBJy+SqmGEPyUpMwcAIXPhNOwAAADBdUxfvSFYC4XCxQaM57guJBYxhnhEfteNAcO5oU2AD91FQVtoB2EDCEgCAiJlEJR1EICzOBw/M956NlTBIUxcPPDOwYfoQLCEDa2hfgpBMAQMJSwAA4vNGohII1rWvDY2auvhIO4AxzH1zrh0H1FBVCWe4t1Sdhrap4hSsYQkAQDy+TImsDQAAIABJREFUuJpmCsCKL01d3Pk+qVk7bC4ij77PjXg1dfEsIu/Kqn2U9Xq1SB9rXcML81xi93CPUkwUvxeRZxE50w4EAADsxMsFEIdzkwBSYXZyf1dW7b2ILLTiQHyaurgQESmr9kl4L0xWiskMhM3sHn4mIk/asSQu2XeF9yKSTLkoAACp4MUCiEdI39emLq5E5IrEJYZq6uJchMRlYpJNZCAOnUruVxE50Y4nQRdmwDJJ70XkX2EKAAAA2l6auvigHQSAQa6aulhqB7FLJ3FJdQsG6SQuFyJyrxsNRnpo6oId4RGMTeK8rNrv2rEkIovBiPey3u78s3IcAADk6ENTFy/aQcAfs6bTjdD3it3SJASDt6luERGhwgVDmGT8UoR7JyJJbbiB9Jh+0ImIvGrHEquQZnW49r6pi1VZtdpxAAjPSjsAIDGrzTphyJvZOOlm8+8sSh+VYCsq++hUuPCyiEG4d4KW9JRQpMck1UlcDpRTonKDXcIB7POvdgBAxF5k/QLxohwHItBdCsB03r8JlUwhed5MkU3F5mVRhARUIKKptu/eOyJUXiqK5p4B9tl6FtGW7JZcH2SI7BOW3Sx1WbUzWa/xwxclX9dNXdxt/qWs2kfJd43XlXYAQATeZN1uLLUDQRpM5/2nNYnKqr0VkU86EWUrminfU+1IQC2EdQtdS6YirruGGveOU19MdT6QpE4VN+sur7G8g/yXzc5t4dPenQQevEkbND0zt+9JjiXnvuV2T0XsQUT+TuXl0rWyauci8qgdx1Sht4Gsg2ndm6wrlrJ/OdjGgP5kWS8HUlbtVxG51I4jMm8icp5yBWUifeCsv9s+ZJa8tLqJTiqFV+9Ffix8msQv1NNX2ape2Ke72PQGScwoTaqUMNUtOUl+xzFkbyXrZQ+WKb8QIF3b62BukMjs7acZFdjPtJHbVb8zWQ9MzPxHFLRsKnP72rVTNe9SP7lr6uJaOwggRN1N40REyqq9F5GFWkB2JT8wYcPO6oEM1w+w0rlgylYQnkXk49QvfioVQgN9bOriQTsIAHEzo+HRD/KkWDVhnm1/SV7VTkyj9MgkMm8l7XuMpUAcMeupfpb03qdWsr5nnrUDAVJi+pyPEn7u6k3Wm/bxrj3Q0elOiZRrD2W1c9t5eZvbOmbmrHcUTQf7m63jRYQXOQDAT0xicy4if4jImWow+62EKukolVX7Sdb31lw5lF3eRORvEXkguRQm02dfiMjvon8Pvcl6Jt7/WDYGCIfS4NmbrJeQuvF4zuQNWp8p0+SliOP1KTKteDjkWdZf9qWrE2Q+FYUkJQAAAAAACNboBeUznDa+zfvaR2aaxELCHZU+ZCXrSoiV7xFI1lkSEdbqAgAAAAAAkbCyA2ZmG/bs03vncbiXcTVw1znTmQAAAAAAQGysJCy7Mp1q+4H1k8KTYdLypamLD9pBAAAAAAAATGE9Ybktg6njp01dvGkHgd0ySFpesUslAAAAAABIifOEZZfZXObR5zldaurC6/XDOIklLZ1uAAUAAAAAAKBNNeFWVu2NiHzWjGEskpVxKav2m8S56c6brJccoIoXAAAAAABkIaikWyQJzLemLk61g8BwsdxfQoISAAAAAABkLKiE5bYAp5DfNXVxrR0Exiur9kREXrXj6GCKNwAAAAAAQEfQCctdyqp9FJG5wqnZCTwhiutafmzq4kHp3AAAAAAAAMGLLmG5razamYg8icOdyFmvMk1l1T6JyJnDU3xp6uLG4fEBAAAAAACSk2QiziQxH2X6JitM101cWbVnsk54T3Xd1MWdheMAAAAAAABkLcmE5T5l1X4SkdueP37Kxif5GDBF/FnW07pfHIYDAAAAAACQrawSlvtsJTLZBTxTW/fBSkSuSEwCAAAAAAD4RcLSIzNVfSEif8g6Mcp08yPKql2IyJ8i8k9TF0vdaAAAAAAAAOASyUpHTGLyLxH5tO9n2MjnuAPTtF9E5B8RuWPaPgAAAAAAQBpIllliphH/JcM2+GHa+QFl1d6IyOcBf+RZRP6mAhMAAAAAACBOJCtHGpFI2+cDayPuNmDzm0O+NHVxY+E4AAAAAAAAcIxkZU8DdxQfhOngvyqr9l7W63vadt3UxZ2D4wIAAAAAAGAikmR7lFV7JiL3InLm4XRUV26xVFV5zLOsk5crD+cCAAAAAADAESQrO1xWTx5DdeV/yqp9FJG5wqmZMg4AAAAAAKAo+wRZWbW3cmDHbo+orjQ8VVUes2zq4ko7CAAAAAAAgJxkmax0uB7iJFRXBvvZPIjIVVMXb9qBAAAAAAAApCyb5FhAFZSHZF9dGUhV5SFUXAIAAAAAADiSdLKyrNqFrDfJicVbUxen2kFoKav2RkQ+a8cxAGtcAgAAAAAAWJRcsrKs2pmIPIrITDeScXKeCh5BVeU+byLykV3FAQAAAAAApkkmMRboWodjvDR18WHsHy6rdm7+cfP337f+3YaV+fuLiPwf8/eXKcm6CKtg93lo6uKjdhAAAAAAAAAxijpZaaoon0TkRDkUq3ZVV5ok5FzWyce534isWInIvyKy2pXUjLiq8pALqi0BAAAAAAD6izJZGeHahjjsTRJLOG9hUx4AAAAAAIAeokpWllX7KHFWFQIi6+ny501dvGkHAgAAAAAAEKLgk5WpTvVG9pgiDgAAAAAAsOU37QAOKav2k4h8ExKVSM9jWbVP2kEAAAAAAACEJOhkpYjcagcAOHRWVu2ZdhAAAAAAAACheK8dwD5l1b5qxwB48CQRLMcAAJrKqp3L7jWrX0TkuamLZ5/xAAAAAHAnyCSJmf5NVSVy8dzUxbl2EAAQgrJqT0TkXkQuRx7iuqmLO4shAQAAAPAo1GTld+0YAM/OqQwCkLOyau9FZGH5sB+buniwfEwAAAAADgWXrDTTv9lQB9lp6iK47yMAuFZW7aPsnuJt01VTF0vH5wAAAABgQVDJEbMm1aN2HICSVVMXF9pBAIAPSku+nDZ18eb5nAAAAAAGCC1ZyfRv5I4XaQDJU55FcdfUxbXSuQEAAACnUsit/aYdwIaZBgbk7lU7AABwpazaE9N50lzu5ZNJlgIAAAAIUBDJSrPz51w7DiAEZdXeaMcAALaVVXsm4QzInKQw4gwAAACkKIhkpYTz8gKE4LN2AABgkxmUfNKOYxsJSwAAACA877UDoIoM+FVZta9NXZxqxwF3PO2ADJE3EXkWkX/Nv6+auljphZOtYAclaW8BAACAsKhvsENVA7DXBUmVdJGsDM5K1gnNh6YunpVjSUokz/kvTV3caAcBAAAATBVJ//sg1WRlWbXfRGSmGQMQsqYu1AcU4AbJymisROSfpi6WynFEqazaWxH5pB1HT6dNXbxpBwEAAABMkUKyUm0auFm/aqZ1fiAGZdXeN3VxpR0HkLG5iMzLqr3v/Lc7WVfikdg6LpZEpch6qjoDRAAAAIAyzQ12gl2/CgjIQjsAAL/4JCKvZdV+N3/FlJDzxsyeiEpZtTPtGAAAAIDcqSQry6pdaJwXiFGML/xAZm47icv74z+ejZl2ACPQ3gIAAADKtCoreZkD+ptR7QNEY9FJXN5qB6OFpC0AAACAsbwnK3mBAUah2geIzyeTtHwtq/ZMOxjPFtoBjEU/BQAAANClUVm5UDgnED2WTwCidSIiTyZxeaMdDI5aaAcAAAAA5MxrspK194BJqPYB4vfZJC0ftQNxhYEVAAAAAFN4S1aWVXsicS62DwQj5zXwgMTMTdIyxUG8P7UDAAAAABAvn5WVKb6QAb590g4AgFWzBJOWc+0Apiqrdq4dAwAAAJArL8lKs5PxiY9zAalLefookLFN0pLlHsIw1w4AAAAAyJWvysqUKkYAbXPtAAA4szBJy9x2DwcAAAAAEfGQrGQqFWBfYlNGAfzqie85AAAAgBz5qKxkyipg30w7AADOzaiyVLPSDgAAAADIldNkJVWVgDtUXQHZeIpsrdqVdgBTNXWx0o4BAAAAyJXrysqYXq6A2My0AwDgzbys2u/aQfT0P+0AAAAAAMTrnasDm6pKkpWAWy9NXXzQDgLDmUq5uXYciNJpUxdv2kEcElFidaemLpz1j2JWVu2JrNutMxH5Xdy3YSsReRaR/yMiz1S8psu8N8zFz30l8t+99f/K+t569nBOOLR1D83E3qD+SkT+FZEXEVk1dfFi6bgAPCurdiYiC7H3rHmRdRvxT2h9lNj74iJuk5XRXxwgBrxUx4lkJSa6aupiqR3EPpH3AR6auvioHYQms07qpYj8KWFX8a9knUR4INkUB5NQ+lPWL4shW4nI301dPGgHgv8Eev+sZJ2oWCrHAWBLWbULEfks/vsyKxH5opnAjLwvLiKOkpVUVQJeUV0ZIZKVsGDZ1MWVdhC7lFX7JOvquxgFX7lqW1m1n2TdmT/RjsWSpQRY5ZCjsmpvROQvSePeWonyy2dOzPvkZ4mzr/Qi62T3nXYgSI8ZUDyTdQLu963//a/5+yrHtsrMALmX9YBrSO6aurj2eUKSlXukcGGAmFBdGR+SlbAkyISl6Sy+ascxRg7taYLJyWOeZZ04WGoHkjpTxXIredxbKxG5pqrXjrJqL2V978yUQ3HlS1MXN9pBID5l1d6KyKeJh3mRhBPoZdXeS1gV14dc+/gcUsjJWe+Qm3UA2KUY8IvqysiQrIRFz01dnGsHsS3STlLQ0+vHCrjSQMuzrD9rkkwWWHqRjt2brF9Al9qBxMK0S7cST4LBJtogHOQh+RbkYPcQJu/0JPEOjq2aurhwdfBI++E/cZGsjP6iADHKoRooJSQrYVlwnc4YqytTakdJUPb2JuukAWsTDkCC8qA3EfmY4xTMY0xy4avEu0yIC9m1QSksGeeiv2Ce29/Ef/LtQ0wbR6Vw/2xxUnSUQl7O6pcsxhcTICHZbwoRE5KVcCDEhGVMa1dG1Vnfx0zDvdeOI1JvInJBtdNuZpruV+04IpN934yBk0GyaINSSDbZTlaWVfsq+hWCQfeDUrhvjrDajydZuSWQLxmQrZSqglJHshKOBDeNOZLOUpBT6Yeg0s264JL/WiJbCyxkQScCbDObK33WjiNiySa6U0g62XrnCvDZHdzaqhkWxJ3bGLCIpP990HvLxyNRCSgqq/YmtAcMAK/uy6p9Dqwq41QC72TGnKgkIeDMwlSpvsn6xeFFNxy/zMvhk6S72YmGb2XViqwr51bKsTgTWUV9yC47yYasEt25SCGZ5FqmxR1PZdU6Xc8yFtaSleZGAqDrs4jcaAcBQNVTWbWnTV28aQciItLUxVtZtVcS6NTkWCvSU6hMicSJZJJkElFdMy0njyneT2XVfhOS265s2iCSlglgQ+LjMqym3DYvq/Z7rH1UW36zeKy5xWMBGMmsKQUgb0F18MzU9OCm1MbaCTTL7pCo9O+xrNrvJlGcHJNsYkknfzb3U9TXu6zaR1MhNtOOJQPfUrhnclZW7ZmQqDzITI0Pqh+rxXzfs61Ut5KsNFOQAISBxe8BbBJawTAJy2DW34oxUVlW7WZaIC+quh5TeoEoq/YrySZVryZRHJWyam/MfTPXjiVDUd4zuTPPjCftOEJm+q4hreEZgiezLE12bFVWslYSEBBGXAGIyElZtUF1+Jq6eJD1GpaaXiJNVD4Jg1GheSqr9jXWZ25ZtWcm2cSMDH2zWBLgZdWemPuG9z9dm3smqOc8diNReVinXYnyeerBfY4Jy8nJyhgeqkCGeBgCEBG5DS2R0tTFm0kWamwC9LGpiw8K553EdODpb4XpRCL8bEzym75CeIJqr7eVVftVmJ4ZmtvQZlLgZ50Ny7CDySdxDx+XXcLSxgY7fPGA8My0AwAQjFcRCa6SsKmLc48LqEe5qyILzMM2NnbAGLRFwdtUpX00MxgQFr47e5jkW5AbMAbqvqzazdJKybO5wQ6AgJjFiQEg2PagU2X5QURc7F7+0NTFu0gTlVQawCrTDpCoxCAmmUBbFIevpmoagWBt0f1IVI52n8vs5knJSjMVAECYWMMGwEbQ7UFTFy9NXZyaxOX1xMO9iMi5SVIGs6HPEKYDzwsnrDEvzEG3AwhPWbWPQjIhNpu1aKGsrNq5MNttJxKVk2XRR5w6DZwFuYGAlVU7a+riRTsOAPrKqv0Ww3qNTV3cicjd5t/Lqr0UkT9k3eGfb/34SkT+lfU075WXAB2jAw/bSFxgDLMOYtBraGI/870/berCxawF9POoHUCI6OfYUVbt9xg3jBxidLLSvDwACNuT6O+8i8RpPyjNyPUfIrIQXqwOmZVVexLbi4tZfyuLNbjMtB468LCCdQYxFgnuZLyWVXve1IXGhnZZYzr+bvRz7Cqr9jHGpY76mjINnCngQPhI3CB5TV2smrq43kwjNsnTc8kkwTUQayeFjZcbWEGiEmORqEzOU247CGsz7W8WawoOwa7oTsxTXr+SDXaAxJVVe6MdA+BbUxfPTV187CQvl9oxBeLE7AaMwJAggC0kKjFGWbUntEPJuidh6RUDw7vxXHIj2QTwqGRlWbWU7gLx+KwdAKCtqYurTsVl7pLt1MSKfhVsIVGJMbhvskDC0gMzIMzMti1mDVw4YjZDS87YysqFzSAAuGU6oUD2TMXlOxEJfqMZh05oE4Kz0A4A8SPhhAm4b/Jwn/KU0UBQVbmlrNpbIYHr2jzFvv3gZCXTx4AoJTnaAozV1MWLSVpea8eihOrKQFBtAIu4lzAYU7+z88T7vBspJoumMtfkk3YcmUguUT6mspKNdYD4MIoK7NDUxZ32buZKZtoBgOlisIeEE8bgvslWckmNQDAQ/CsG0fxJbl36MclKkh5AhJj2AexnEpbP2nH4ZKblQBcvjJiM6lyMUVYtiZWMkah2YqYdQEjKqqXIzb+k+pWDkpUkO4Co8cAADmjq4lzy2jWcaTlA5MzmTFTnYpCyam+EApTsMdBhDwPAO11qB5CjlKorh1ZWsu4dEK+ZdgBA6Jq6uJKMEpasr6SHigNMZYoIFtpxIC6m3f+sHQeCcGIS15iOAeAOEuGqkqmuHJqs5KUGiFhZtYxwAUeYhGUuU8IZhNRDe4ypmMaLMUgioOszA5fTcP1+VlbtXMgbqUrlnuydrCTJASThXjsAIAZmSngOmAaoIJVOJPRQtYIxWKcSe9CeTMP71c8YCNeXRFs/pLKSLyEQP16QgZ5y2SWcxJkK1rbCaFStYAyzbAADVNiJpUkmoajLKKt2oR0DRCSR5d+GJCvpFAEJoEoaGOSjdgAeMBjp30I7AESNqhWMkUSlDZzh/WAEBnx/QZ8S1rzv80PsAg4k5VZEHrSDAGLQ1MVDWbVvkvaAHS8ocG0l63Vg/z/zz9LUxerQHzB9zxPz15mI/N7552xR/YQxzK7xwEFl1b42dXGqHUdkmClhmKp/wJpeyUoRoWMEpGOmHQAQk6YuTsuq/a4dRyzMtXoWkYumLt604xnCVJ5/FZEvTV3cKIcTq2cRuT6WjDymqYvuJlcHB9jMtLM/RWQ+5ZyRYHABYyy0A0AUTsqqnTV18aIdSEQW2gEEhKp/WNU3WTlzGQQAv+iIAIO9SMLPwrJqL5u6sFlxfSYir2XViogszQ7rQTIVfF/F0+eb8JSxi6kJyrGauliKyLL730yFx1+SUHKvrNpv2jEgPmyqg4G+iUgWa3bDnoT7NlB0NFlZVu3MQxwA/LoXkQvtIIBYNHXxIfHqyr/E3fIQi86C6ytZV9097/9x90w8t6IzvT+1aczPTV2cawexzSROV5t/N/3ZzxJ3FcxMOwBEKbU2B46VVTvXGnyKCZvJ/ISqSljXp7KSdRiA9My1AwAilPLalXOP53kyFZci62TS35arOn9iRvs/yTohG8LnN9cOwKYQE5W7mNkEV+avzZT/W4kkAUhVJcbgvsFIj0J1ZR+ftQMICIMisK5PsjKZ6TMAAExwLuvpUbBnLiLzTvJyYyUi/8p6/cO3QxUeJhl5Zo71f5m/02n2I4pE5S4mQf4g4n8pgJFm2gEgSjPtAJQtReSfIVWCpj24lMwTUSwZ1ctMO4AQUGHay7Osix5EEhu0dqnvmpU47rqpi7tjP2QegJ+FJPAQz7Le7OBo5Y2plPgsvKgeVVbtDRtIAP01dfGyI6kGN+bS6cxx3cOkPZ3fFvN7fBD58dIV1M7J7ORs1Zus+5W7zD3G4Vym982LiHyc0jaZP/ssIjciP5aQ+Cr5vVs8iQg7g6OPHNuafb6IyN3QDSZNDuMvSew5NNXBZGVZtZ98BRKpK7Ooe2/mAfhx8+9l1T4KN+Uub7JerH9QZ2NHpcSjhDHtL0SfxXTEAPT2IIkONjnYZAeITneznoD6aAvtACLwLCL/E5GV7bX2TPX2pcS34/xCOwCP7pq6uHZxYFNdeC7y4904lyXSeH86wGziBrzJOic0qf/czWGI/BhsWkwLLX7HKiuzLn8/wNqOl01dXIgE1SHW9iYiH4aORuxiEp2nppP5TXjoApjuShJNVorIH+Jukx0kqKza+5B3ep+q00e7EaU+sam2wK9GVa+MYc6xlF93nF/I+r6YuY5hqIzum6XPNsjMorvTbBN8Sr2Nnyj5z7+PjKeAO217zLGvTFI8282LjiUrSe787KGpi4/Hf2y4pi4uTFLt1cXxI/HRRVWP6WSe5v5l36Ws2rNUpvEBPjR18ZbwlORLMZuPAD0tJIN7xiyZcqM0Rfyr5/OF6kUmTu+1rVuFKyJSVu2trDfzCkHq981bUxdqU5Q7bcKrpP2+vJAM2viR5toBBCK3KeCrzUCmD6ZA7p2ZMfrk67yh+G3f/zCJM/zn3FWicqOpi7emLt5JhpUtTV28cz39sKmLlbm+zkfhI8KoIIANnvt+rLQDsKms2u+59BmbuliafgQv7/5cmT7ih5ASlbs0dXFtYn0nIkfXscdoXzQTlV0mjqTbg1zad+CIN9O+e0tUdjV18WyeLV80zq9lb7JSSGL8YG5Mbx0kkxRN+sHXsfnieWM6FkF3eD3KZZoQYNNSOwBELcXnz2tZta9mI4rkdZKWTl8aMl87/oPpfy+1Axljk7iU9cZNLz7Pnfh9cx7a5pDmHg0ieepIbpVz6MlU++UgpAGSG9+5E02HkpUpP+h607oZzIPvXOPcHj03daHyO5rzpvjCCMC9f7QDQLx8rLGn5EREvplKy685VON0XhpeHJ0il408ujZJyhftQGxo6uLFVIW+E38DXaneN6ehVtd2ZseliMIG7JNDcdtpaAMkIj9yVEG2hzYdSlZmT/uhYx7IKqXGHrxoJSo3SFiusZsdMIztnWaBBF3Kutryu6m4THoAPJXEmrIvKSUpd2nq4spz0jIlp5EM9ARRfQV4knQi2zyTgm13TC5jqR2HSzs32MlhNLyHIB42TV2syqr9IomNXDR18UE7BpH1lzyDxbGP+SyJraEGAAjGiYjcms1HNl5kXaH8EGqllLaMptepbpSiobPL66NY3qQj0fvmKuSEQZfZhO9CEtvQs6zamxCryzLxICJ/jxkoNzmdhYj8KSIptg0uRfFcauriyrT7SX6++3YDTyoxNsLHkB6KTV3clFX7lySSUNOuWN3W1MVpWbXfteNQNNcOAAAycyd5L7czk3Vf83NZtd3/vpL1S1l2Gw3ukOpU3q6lSdxlabNRg+VB89Tum5fY1i01hSYrSat//VlEbrSDyIS1dtHkM+6ks+FXWbULsbAOaeJrVF+ElAs6xhRfJZnL2DcNPOcO9EuIneSERp2d7qg+QarT7QEAgWnq4lo7hkDNReSrmT7+vTON/CbRirFD5toBOHaVc6Kyy/TxbfVD55aOE4RQZmINpbVjMKL1LOulDt65bhc3G8RZ2CRuYSmk0DzHuNxTaMVgtrBm5ZbAH4qhJvr6egsxESzyYw26F+Uw1CQ+OgYAiNeJrKt6nraSmI+mQgTxuYqtWs61pi5WjjdrilHsyWwSljhmZRKH5xqVfJ1N4sbcq3/ajicE2ntqTJTcQDjJyp9NGV1wLtRE3wAhJ4JDT1S79pd2AACQmaV2AJGbi8j9nirMqJfNiT3+I5YkKvebssFQavdN7PdJjNVZh7Ahp1VvJkkZREK7M1gyZIBg5igcTVEPkDR1cXf8p+LyS7Iy51HqSBYOjjWh9hLJ2g8r7QCU5Lz0AwB4xxRYJzZVmK+dBOZ9hLMHkn0mc987tdAOwKJU7pNY39t2obDBjo+hLu9mpojfaMehJfYBEiOlNmdnZWWuDVEUmegpI67KoiipDmWECwCQhRftADKwEJFvneTlQjmePn7XDsCFVNfUCsgf2gHYkkjSIOb3tl0utQOInammjH2mZKqSGCBJrM3ZmazMbQFzEYlusfvovkyRVFVuxBQrACBeUQzkJeY+gsTlXDsAB5baAWRgrh2AJaklc6IoiIFTbykN1kQ4W+GoVAZIjOhyRfuwZuVaVMmpCL9MsX1hYovXCtaiAQC/zEDei3YcGdskLr+ltt5faJj+jQGSulciK4iBfW+hTvueILXitmftAGyKMFe0F8nKtRgfitEkWGP7wmRcnp/rEhAAoCbzzd1CMZP/1rmcK8eSolz7VRghstlYwEEJJipF0ktWxpgLysJPycqyapNd0PuQSJNTjNLBNtaiAQAdPNPD8UjS0q6mLj5qx4BopJqoXGkHAP9Smvq9Jal1lZu6SKqy0viiHYAN25WVf6pEgcEiqlaMMREswvoyAID/n717yW7b2Now/CUrbRx5BD89gkgjMDWCyD30QjWqbWkEkkcguY2GmB56UkYgegRSRmCeEZgHE8jfQNGm7rwA2HV5n7W0HPsk5j42BQK7vto1kLoqLpXuQ3qslk1LtocDw/liXUBP/rIuAINLMVG5NLIuAK9L5VT3x83K1CK960ixkx6SWG86uKkA8CwSV+hDolvFUvC9dM2tdRERm1kXgKjMrAvoQ0Qhk1dx/7O2m8THGYysC+gQvaCAMbNS+tu6gJQ10ATgAAAgAElEQVTVVTGzrmEbicbB31S6JscFC2BTf1gXgGTRsAzT2KcsR32/UILNgCS2ooUuldN5Y31uAFYx+iIq9IICRrMy7hW8uXUBSA5zK4G3ZTnfGf3zSQwaluH6VrrmwrqImNB8GszIugAAkqRD6wKwkSwDSrH40axMcCV3LZHfRM2tC0BymFsL5GtuXQBoWEbgpHTNnXURAIDwRN5byFHK2/Wjt5qsHFsVga19tS4AyRlZFwDATKwHoiWnropFwqeIpmC/dM136yIAAEF5b10AkJLVZiWJKgAAXlG65sq6hh4xtycwvmE5t64Dz9qjYQkAWKqrYm5dA5CS1WblyKoIAAAiMbEuoC9sXQpTXRXvJR1b14Fn0bAEAEjSqXUBQGo4YAfAA6mcKAkAqairYkrKMlh7iSeuEYe5dQFAzuqquLSuAUgNzcq4fbAuAEniRHDgGaVrbq1rQN58ypKZWOGZsNAHS2w/BYCtjK0LwMuyb1ZGfnM5ti4ASfrDugAgUGPrAnrE4TqRqKti7lOWh9a14IFvXfwmqY1jKF0zsa4BQDdSuz51iFEt8frdugC87FdJKl0zNq7D0ti6ACAwY+sCgNBksM3zs3UB2ExdFTPftDywrgWt0jUX1jUE6JN1AYhHqs+kkYdj8Ia6KqbWNWBr7CgM2DJZmXOSilPQe1S6Zt+6hm2kerMEYGsT6wL6VFfFvXUN2E5dFfd1VfziG5f8Pdo6sS4gQFHeB8JMqs3tiXUBAPKRSi9j2awcWxZhbGxdQOJibQanerMEYEPMqkQs6qo48E1LtqQZySCFvTFSZdhAqiknnivSleMi4cy6ALzpzLqALiyblax6RqZ0zbl1DWuKNWWQ6s0SgA2UrtlT+otanGCZmOXp4b5xeWpdT2Ym1gUEiAUf5G7PugD05ot1AdhN6ZpY+xWvGVsX0IXsD9iRot2qnES3HAAC9926gL7VVUEzK2F1VVyuNC4/Spobl5Q8DpV5YmRdQCaSSHhF+lz2Ir/oiURlOq/yq3UBHUtq3nRK1xyala1r6wJSVromqpRioqsrG0llzgWwi9I1fDYgKXVV3NRV8X6lecnBSv3YdSt4Ek2nVaVrOjktHa/627qAjqT22ZvKaIiZdQEIxsy6ALwqmWsozcrWyLqATUTYTIvtQzqp1ZUtJbWqDWzKJzuiWmjZ0tS6ANipq+J82bhc2TI+Ny4L6TSdVo2YXdm7G+sCOjKyLqBjqdxLsN0ZSykuqCXT4FMiW8AlmpU/RLZlJ7ZmWjRR5JRi0zv6P+sCACv+OnBnXccQ6qrgIBb84LeMryYvD5VOA2RQO+4qmXZVR2BIV/aoropkGggRzeZ/VWTPl6+qq4LPAkiS6qpYWNfQgyQWFVI75O/X1OaC7CCKv9hYt+dGdJpuFg2KNXBdQM6Sn1MJrKOuilldFR9Xmpfv1G4dT/FBpWtbLyzXVTHvsI6glK7h+op1pDKbP4rnS2xtZl0AuhNRv+I1E+sCuvSrIkq99S2S1a9Yv4nG1gWsaWRdQCDG1gUAFkrX/Gtdw4BIVQ6sdM1tzFth66pY+K3j7x4d2jMzLi1EI+sCArVXuoaF4f4ks5AQe0IowrFd2FxqB83kbhzzLssUZ0P/KpoSq4L+UIztoJrHQv8GYrUfyFfpmlFmjcpcT7AMwbdEVu8l/Ti05/BR+vLSuq4EzK0L6NE+DcunSteMO/gcSunQrIl1ATuKbWzXa6bWBQQqmdELW0hmYeSRKPsBfvftyLiMzv0q6YN1ESEJ/AEi9sGvwQ5X99/g0a6kANieTz8EvZjSg6l1AZkbl675N9TPxF349OXpo4N7PirDh7odExopNZ2es88icWtlsWznZ5C6KpJaKIj1PRJr3a84tS4gUKk27NaR7IFLgfeDXhJjzW/igJ2nxiHO8Qw9lbiBUP9/JPkNDuB1/oEipfTDWjhYJxjfckiY+fTlwaPmZQ623hGTSfJ5zzftg7vvHsJKkzLUe+MQ7JWuieoz2i+AJhWASPRAlZ3VVTGzrsFQygcujSMZDygp7RFWbAN/XlAPDv6bZWRcRmdCW20MrR4A/Stdc+4/3JN6oFjT3LoAPLDvGzbZzDfzzctl4zLlh2B2L63nLqd7sZXt3n01KVNrIpzE0tD2dUbVXF1DytdobKmuitR3S1zFcN1J/bOTZOULQulQ+y1iQc/S3MJeKEOzS9dcK89mBZCllYfEVE4a3VhdFe+ta8CzLnzTcmxdyJDqqngn6cC6jp6Mdvzvpx3UEItlyvLcupC+rCyS9b2bJ8Utu3ehH3zh6wsq8NIRdmIgV3chJyx9ozLo6+KuaFa+wrpT7T/0Ut0aMrG+IfUN06gPLQKwngEfEkM3ty4Ab7pNdZ7lS+qquPcpy9SMd/mPMx3XcJZS07J0zX7pmu9DLpLVVTEf4nUMfA816eTrSjLhVFdFaklddCf1dKXUJiyDOjekdM1eLrvDaFa+bs+qYekblUl+6K04s0pY+tedWLw2gGH4h8RvuScpV5GqjMq33JqWknh/YmnZtAw+UfeY/+y58589d7J5oEy1wXQXyu6sJT/CI8VEpcQCJ16X+kFwS0cB7bo9Ufo9oh9oVr5tb+g3Z+maI+XzJpwMfbiAf73JkK8Zo1BXr4GX+JXGc/+Au3xIHBmXFZKpdQHYyrJpObEupG8JJ8J2MbUuwNi+2kTdv6VrrkNtXJauOXn02WN6D1VXRcqHWE2sd78tZXBI36F1AQhXbqlby9T/Spoy5evNE79ZFxAL/+b42Pc3ZemaW+V36NG+//N91/dpc6GsikQiyAcCwCfN9tUeXjER79W1ZLqlNCVXPlE0Tfzv8rNIQv9QV8VxDo3qNR2pTbgsf34p6S+Lgx58uuWTWBCzsnxwN7ke+oZF8tcpFpCAJ85K15xJOq6rYjrEC5au+aZMP2toVm7munTNwg+D75QfqJ/7LLXvpWt6uelg2zfQHxYBokA6Ih2TlebVYDfLA5opgyYAOnGi9qTo1V+7l/S3/3G+SyPT35uP1S6Mjbf9fQx9lBTUrLUeLK+Hn+uqOO/7xfxrBbUNvUe5bPHFbi7VXotz0+sCst9pm/r1+000Kze3XMmbSzrYNQlIk/KJ5U3HZV0VO59mmMvKZ0/Gah8aAcRtUVfFzLoI9GJ5syyl2bhE60DpzsTr2r5WtmA/amRmpa6Km4z+/y/TTvdqd8LNu/qN/eiB7A7lHKL5i/jVVXHqk+a5Wl1AvpH0Zdt7bv/neCZ2jP1As3J7I7VJQGnDxprfwnihzD70NnTiv2EXah/A1t5+71cirsQ3OgCoj90ACNJq43Iq6bTv0So9ySW1tLa6Ku4zajqhW7mNVdhXO+dXap8hvqh9TtvoWsg2f8IKwBYejyrBjmhWduPk0YrCvdoPyK/+5x/UfnjSPNvcntrt96u/NlP7Z/w/Sf9R+2c7HrowAIjAgXUBMDFRu9ovtTtBTmMYhO8PdhtZ1xGoY9HIxYbqqjj3icMc7alt1J7RPNhMXRWMjsEmpmLcGnpAs7Ify+0nY8siEjYWf7ZD+GBdAICd3FgcPIHgjPRw0e9e7Xy3oJqXiY7F6ez7r66K6UpyFthEbulK7GZmXQDiwkFw6AvNSgAA0rOoq+KjdREI0r6e7liYqj1VeWZRUMInXXa9WEC6EhvLPF2JDZGqBBAKmpUAACSGOZXY0EQ/t40vLdQOi/8qadblgRWSVLrmQumfIPpXl78Z6UrsgEY31jG1LgDR+ihOr0bHaFYCAJAWGpXowp58E1N69VTluf+Sfs6Tfux3tYnOUWfVRaCnpOqh0tsuj57R6MY66qo4tq4Bcaqr4obZsOgazUoAANJxEOkJ0IjXSD+bkGOzKjJRV8WsdM1CHNqIzb2T9N26CASL7d/Y1VQctIMO/WpdAAAA6MQxB+oA6WPMA7bhF7KCOlgLwZhbzSxGOkjmoms0KwEAiN/nuiqm1kUA+OG059//c8+/PxLEwWt4Tl0V761rQDJm1gVAUiJ/DzQrAQCI27SuinPrIgD8VFfFZc+//7naQ5CATZHMxaoD6wKQDk6TD0Mqfw80KwEAiNeUbTdAntgOjm347eB8bkCSbhgfgx7MrAvIXDILmTQrAQCI0zGNSiBIQ261JRWFjfmxITSp8rZgLAD6kEqqL2LJjHWgWQkAQHwOmVEJhKmuisEOMfGpqOlQr4d01FVBoztjJLPRs77nNuN5C5+eTwLNSgAA4vKOUzuBYA1+8I1PWM+Hfl3Er66KX6xrgAkalehV33Ob8bzUFiFoVgIAEIm6Kn5JacUUSI3VYVec5ott0bDMzgH3ERhIUo2zCAy2q2MoNCsBvIRZRkA47nmgBIJnOkOWawR2QFMhDx85UAdD8U1xEpYDSXEGLc1KAC/5n3UBACS1B+kwWwwIXAhzZGlYYhu+qUDDMm3HQ87TBSSpropTJXQ6dcCS3F1BsxIAgED5bd9T6zoAvCmYRg8NS2yDhmXSjrmXgJXU5igGaFZXxdy6iD7QrAQAIDyfaTgA0fgc2gw4rh/YBg3LJNGoRAjYIdSTuioOrWvoC81KAC+ZWRcAZGjh05Tn1oUAWMsi1O9XGpbYRl0VC947yTigUYkQ+FmppnOdU5T6tZpmJQAAYThkqwwQl9C/Z/2DTFCpT8Qh9YfgDLzjMB2ExDfOmZvaneTTqjQrAbxkbl0AkInPPk05sy4EvZtbF4DuxNLM8Q1VHhCxMf8ep+EVl+UODRYpEBx/YjXXlN0d57AYQbMSwLNSHdQLBGTKlu+81FVxrHYeHA+RkYulUbnkHxA/WteB+NRVcSC2b8biJvS0N+CvKck32nr0OZfxDjQrAQAY1jJJycNfhvw8uHeSkh2InrrYGpVLdVXcxFo7bPkHY5pgYTvwixJA8GhYbm2aU8iBZiUAAMP4SJISS3VVzHzjiKZ1PJI4eMT/f2BbODaycvAO752wLLd90/hBVGhYbuw4t6ADzUoAAPozVzvk/pe6KnjAwxN1VUx9A+CzdS14VVLbK30CK5n/P4n4HEMznPdOUDiYD1HzDcupdR0R+JjL1u9Vv0maSRrblgEAQFI+k6DEJvz75bx0zbmkM9tq8MhBiqklfwDHL7znzM3qqohqLATvHXPRvWeAl9RVcVy65i9Jt9a1BOpdrgdm/SaGvM/919i0CoTmVNKFdREAonKjdotG7p+r2MFK03Ii6cq2muxl0RBYec/divvhIUX//uK9M7gFSUqkqK6KWemad5K+W9cSkhjS9n36TdI/ko6sCzFyWlfF5fInpWsuJJ0Y1gNbc7XpiYUkla6ZigsmgNfRoEQv/HafaemakaQ7SXumBeUnuyTDsnFWuuabpJFtNUmLvkn5GO+d3i0kvc/tmoS8rCS27yTtW9dj7LKuilPrIqwtt4HnGN9/chPq3xCnpWuOJF3blAUD0+eG1a5cML+Lh0QArYXaLd6Xb/6bQAfqqpjLz4crXXMlaWJZTwaOc5wLtaquiveSxANj556930zJynvnWvmGYbo010qQAshBXRUHpWvGyndbeHaLpS/JcRv4m/F5fwjCL6Vr9tSmGUZDFIbBfVznwIu6Kt5lOJNnZl0AEIiFpC/Mn0QIfKPj2Kctb8X9SZeYM/uIP/iAJvnu1rrfTIk/hEeZNxx2QaoKWaurYqa2H5PTiAnuQx75ra6K+9I11nUMZaM5H76jvVwhPBEzDFNws7yB2kRdFeela+bKZ35YbosYwNKlpL/9TRIQJJ+2XN6fHKn9bGIHwHayT1K+ZaVJvq+28cR77W3JbfXexrLhINH0XsO92sb23LoQIBR1VRz6ANk3pfvZk3zqflu/+R9zGWa6V7rmX23RtfZb/i4ltjZEaKH2w3+2zX/sL5A5fH8sbdXQBSJyrzY9TFMS0fOJrRtJ8s2kK7F19y1zsbVyY/5E9OVIgnPlteNkHQtJhymeHN+Flab3ntrrFM9S7bXoI+8Z4GX+s/qd31XyzbicLpGkfMOD04UyHIp8uMuDKtuwgrdzWiLD74kDbpiGkdm2hqHM/I9f1T4AzGlGDs8vCsYuiRtIdoU8sFB7X5DVdtwhZH5A5VztgZ28r7aUYeLyXu21KNv77VTGA+R+UrOVBJKWg4wGSeF+/Mk3WKaHy7zfNXLv0wzXyquxFaIHJ7xvK8NG0kYjEgDgJf76Gbu/Utwa7NNwnxTvDf6mZmrvC7JtCgytdM1EbYM85ffYjdr31dy6kNT459AzpZcOT2IBDAhNRIsdbPXewourASl0YrfQyclLPnF5IbY3DKHTpEREF7wuddLgBQDExadb/lQ6n3sztQdikXILRCLbxW/Uvq9m1oXkxl+jzhRXgGCu9v3CvTUwkEDHS9Cg3NGr0eVEbjA2tVCbtOxsjhHbsDo3VbtCOe/qN8y0Scn2BQDAEz4d94fCuul/7EZtApbGZEQiaJDPlGiyOhWBvYdmaudf05gEAuL7L5807K5XFrY6tlajItOUpdTB9vDHfNf/TPnO9tnGTG1zctb1b5zxYUlsRwEAbMw3Ckb+68PKP3dppnau2//Unqo86/j3R2D8+2os6Xe1W4BHPb3UQu1766t4byVn5X30wf/SeIffbu6/vqp9z9yz9R+Ik9/5eqR2IXa84283E58hg1g7VZVpynKp1yGoGc6QestU7apEbzOmMjw45wfSlAAAAAAAIFQbNy0yTllK0mVdFad9v4jv/E+URwNzsLi0/3P91vfrBIw0JQAAAAAACNpWCStmMGou6aDLuZbrWNna8IfiOyXvRu1Ml+nQL5x5KljipG8AAAAAABCJnbaD5ryVdkUQJyn7WZj7+jmnZaTh/m5mauc2LNTOc5kN9Lov8inKW/H+PAzh7wMAAAAAAGAdO8+uK12zL+mug1qixhzAcOR6svcjs7oqDq2LAAAAAAAA2ERnDbbSNRfK94Trzk8Nx24yn636bugRBQAAAAAAAF3oPA1Yuua70j8U5gFSleHJdE7lscVMUAAAAAAAgK700mTL7NRlUpWByihdeVNXxUfrIgAAAAAAAHbVayKwdM1E0lWfr2GMU5YDxvsPAAAAAAAgLoNsX071wBO2f4cv4XQliV4AAAAAAJCcX4d4kboqjn1jbzbE6w1kZl0A1vLeuoCOHdZV8QuNSgAAAAAAkCKTZGDpmm+SRhav3RVSlfFI5NAnDs8BAAAAAADJGyRZ+VhdFe8lvZO0sHj9DpxaF4D1RT7X8bNPUk6tCwEAAAAAAOibeTqwdM2e2pPDo0m+kaqMT+maa0lH1nVs4HNdFefWRQAAAAAAAAwpmKZbRE1LDjaJVCSH7dCkBAAAAAAA2QqmWbkq4JmW93VVHFgXge2UrhlLurWu4wXMpAQAAAAAANkLslm5VLrmVtLYuo4ltn/HL8DDdg7rqphZFwEAAAAAABCCKJpvpWsuJJ0Yl/Gxroob4xrQgQC2gy8kHTBOAAAAAAAA4KEompVLpWsmkq4MXnoR+YnSWFG65lzSmcFLz+qqODR4XQAAAAAAgChE1axc8ofx3GmguZZs/07PwOnK07oqLgd8PQAAAAAAgChF34QbYIs4jaZE9dywZKs3AAAAAADAhqJvVi6VrhmpTVt2eXgK278T1tN28Mu6Kk47/j0BAAAAAACykEyzclXpmhNJF7v+Pmz/Tl9Hp4Pfqz3Ve9FBSQAAAAAAANlKvhlXuuZa0tEW/ymnf2dih+3gvEcAAAAAAAA6lHyzcslvE7+WtL/Gvz6vq+J9vxUhFKVrjtS+N9bBDFMAAAAAAICeZNOsXPVW45Lt3/kpXXOnlxvZNCgBAAAAAAAGkH1TzjcurySN/S+9Y/Zgnh5tB6dBCQAAAAAAMLDsm5VIQ+mafbXJyJGkD/6fXzs457iuimn/lSF1pWu+qX3fPede0lzSP5Jmku5ZDAEAAAAAAAAAAAAAAADCR7gSQStds6d2l/6+1gtNbuJzXRXnHf1eyIx/b35TN+/Hudog5j+SZnVVzDr4PQEAAAAAAAAAAAAAAABsiXAlTJWuGasNT/7uf+wqOLkuApbYmD+e69vAL7tQO/3yq9oJmLOBXx8AAAAAAAAAAAAAAADIBuFK9GolPPnB/xiiaV0Vx9ZFIA5Gwcp1zdSGL5l+CQAAAAAAAAAAAAAAAOyAcCV24o9GPtLP8OTIsp4dELDEmwIPVr5lIelGP8OXc9tyAAAAAAAAAAAAAAAAgHARrsSbHgUojzT80d1DIWCJF/kprLfWdfRkeeT43yJ4CQAAAAAAAAAAAAAAABCuxE+la/Yl/ak2QDmyrcYMAUs84b837qzrMDKXn3hZV8WNcS0AAAAAAAAAAAAAAADAIAhXZqh0zZGkP5T2FMpdELDED5EfBd63G7XTLm/qqlhYFwMAAAAAAAAAAAAAAAB0hXBlwghR7oSAJQhWbu9G0t91VUytCwEAAAAAAAAAAAAAAAC2QbgyAT4ANlF7pPfIspbEELDMGMHKzi0kTSX9VVfFvXEtAAAAAAAAAAAAAAAAwKsIV0ZmZRrlxLiUXHyuq+LcuggMq3TNntpgJRNf+zeT9Jc4WhwAAAAAAAAAAAAAAAABIVwZKB/uOpL0SdK+cTm5O07heOPSNfvqPyx4n0JArnTNNzEF1tJc0he1gcu5bSkAAAAAAAAAAAAAAADIEeHKABCkjMJhXRWzLn4jf9z0yP907H/8v5VfGyIEGZt7tcdKS9JX/+Pcf6mrvxtJKl1zJ74PQzRXO+FySuASAAAAAAAAAAAAAAAAfSNcaaB0zUTSn/oZrEMc3tdVMV+ZADmW9B/9DEMSyAvfQm1Qcy7pv/oZ0Lyvq2JRuuZabdAZcZirnXA5TWFiKgAAAAAAAAAAAAAAAMJBuLJnpWvGaoOUE9tKACALM0lf6qq4sS4EAAAAAAAAAAAAAAAA8SJc2SF/vPeJ2jDlyLYaAIDaaaVTtYHLuW0pAAAAAAAAAAAAAAAAiAXhyh2VrrlQG6gEAMRhJum0rop760IAAAAAAAAAAAAAAAAQJsKVWypdM5J0J2nPuBQAwHY+11Vxbl0EAAAAAAAAAAAAAAAAwkO4cgula04kXVjXAQDY2X1dFQfWRQAAAAAAAAAAAAAAACAshCs3VLrmVtLYug4AQKcOOCYcAAAAbylds6+2J/C7pJG66w/cS5pL+kfSrK6KWUe/LwAAAAAAAAAA2BLhyjVxDDgAJI9jwgEAAKDSNXuSjiT94X8MwVzSF0k3dVXMbUsBAAAAAAAAACAPhCvXULrmSNK1dR0AgN5xTDgAAEBmSteMJZ0pvlMq5mo3CE2N6wAAAAAAAAAAIEmEK99QuuZK0sS6DgDAYBZqjwmfWxcCAACA7vmTKc6U3rP+vaRTjhQHAAAAAAAAAKAbhCtf4I8Bu5M0Mi4FAGDjtK6KS+siAAAAsDsfqLxSfNMpt7WQdFxXxY11IQAAAAAAAACAzZSuuZC0b10HCFc+q3TNvtpgJQAgbzd1VXy0LgIAAADb4TQKSe1Ey8O6KhbWhQAAAAAAAAAA3la65lb5DAsIGuHKR0rXnEi6sK4DABCMudpjwlmMBgAAiIA/ieJW7Op9jGmWAAAAAAAAABABwpXhIFy5gokWAIBXHNRVcW9dBAAAAJ7nT6G4lbRnXUsEjuuqmFoXAQAAAAAAAAB4inBlOAhXeqVrvkkaWdcBAAgai9BA5ErXXIhJZrC1kPTPGv/e3H89+G8J+gNPMalyawu1x4VzXQEAAAAAAACAgBCuDEf24crSNSNJd2KyBQBgPdO6Ko6tiwCwHR5EkLGFpGWA6qv/8V5tYHNmUhHQgdI155LOrOuI3H1dFQfWRQAAAAAAAAAAWqxphiPrcGXpmrHa6RYAAGyCBWggUjyIAFu5VztF8x//z/d1VcwtCwL8tMo7cQJFlw4JWwMAAAAAAACAPdY0w5FtuLJ0zYmkC+s6AADRWkh6X1fFwroQAOvjQQTo1XI65ldJM7UhTD4n0Tk2Svbqc10V59ZFAAAAAAAAAEDOWNMMR5bhytI1V5Im1nUAAJJwUFfF/dv/GoAQ8CACmLtXG7z8WlfFjXEtiFDpmomkK+s6Ejetq+LYuggAAAAAAAAAyBVrmuHILlzJmw8A0IPjuiqm1kUAeBv3gkDQ5pJuJP3FxgU8h2DloAhYAgAAAAAAAIAR1jTDkU24snTNnqQ7SSPjUgAAaeIIRSACPIgAUVpImorQZdY4CtwE97cAAAAAAAAAYIA1zXBkEa4sXTNSG6zcMy4FAJC2m7oqPloXAeBlPIgASbmX9EXt5+/Cuhj0q3TNd/FMb+FjXRU31kUAAAAAAAAAQE5Y0wzHr9YF9K10zb6kb2IRBgDQvyN/kwMAAPq3r/aI6O+la/71X7f+6GgkpHTNlXimt3JhXQAAAAAAAAAAAFaSnlzJsWEAACPzuireWxcB4Cl2eQFZmkr6wpHicfInUXyzriNzp3VVXFoXAQAAAAAAAAC5YE0zHL9ZF9AXP63kyroOAECWRv7oyvccUwoAgLmJpEnpmuXP55I+11UxNaoHm5lYFwD9KYlwJQAAAAAAAAAgO0keC1665lwEKwEAtvbUHlM6si4EAAA8MJJ0tXKU+DeOEg/aH9YFQPvc0wIAAAAAAAAAcpRcuLJ0zYWkM+s6AADwvpWuGVsXAQAAXjTSw7Dlbemafeui8AN/F2EYWRcAAAAAAAAAAMDQkgpXlq65knRiXQcAAI/cErAEACAaY0l3Pmj5vXQNz5hGuH8Kyti6AAAAAAAAAAAAhpZMuNIHKyfWdQAA8ILb0jVH1kUAAICN7Em6WJlqeVG6Zs+6KAAAAAAAAAAAAPQviXBl6ZpbEawEAITvunTNxLoIAACwtRNJ3wlaDqOuipl1Dfhhbl0AAAAAAAAAAABDiz5c6YOVY+s6AABY0xUBSwAAkrAatOTo8P4srAuAJMKVAAAAAAAAAIAMRR2uJFgJAIgUAUsAANKyPDr8e+masXUxibmxLkCd0o4AACAASURBVABaMEUUAAAAAAAAAJCj36wL2BbBSgBA5K5K16iuiql1IQAAoDN7km5L10jSVNJpXRVMXtzNX5Im1kVk7ot1AUhT6Zp9tddNSRr5r1UfBihjIemfZ37tfuXn87oq5gPUAiBQj65Xq//8H//zx8YdvOzslf/tuWvXvX5O/F7UVXEvAEkpXbOnp9ec8Rv/2ePr1HPXj8fmeji5nmsKAACRW3mmGeln/+V3/Xy2WRqv8ds97psszSX995l/554eOWL3i3UB2yBYCQBIyDEBS2A43EcCMLCQdMhi1PZK11xLOrKuI1d1VUTZO0L//KTekf9aNuTHZgWFZeZ//KqfCwqENAFDfjFxpDZkxDXroR/XKbWLoctrFvevQAdK14z08/qzp58bSMY2FQ3iuesKE/EBAOiIv7/Y918f9HATWIxmau8b/lEbxpxZFhMK1jTDEV2DnDcPACBBBCyBgXAvCcAYn/lb8M3Cb9Z1ZIr3bGZWmvPLxvzYsp7MzMRCArAxH5ocqw1MLhcX0b+Z2rDU8ppFEBNZ8fdMY7WhyRQCDSFYhjH/kb/GMOUKAJCz0jVHau8zjvT0tI8czST9LWmWy/MHa5rhiCpcyRsHAJAwFq6BAXA/CSAQ07oqjq2LiEnpmomkK+s6MnNTV8VH6yLQLT9tcqy2OT+2rAVbm6kNH3xVu6BA6ABJ8+HJ5aLi2LYabGimn9eqmW0pwPpWgpO/+x8JbYdjORGTawuAIJSu2dPPjYm/6+ek4j6shtDv1YbQ5z29FgbkQ5R/ipN7tjWXdCPpr9RCl6xphiOacGXpmitJE+s6AADoEQFLoGc8iAAIzFTSKcGY9ZSuOZd0Zl1HJuZ1Vby3LgLbYbJB9uZ6OM2BzxgEbyVA+YcIMeViLn+tqqvixrYU5GhlwwnXnbQs9PA+aG5aDYAk+ADl8l419PDbXG3I7Cv3WOFZeS99EvcfQ5hK+hJz4JI1zXBEEa4kWAkAyMghO26B/vAgAiBQ92rvAQjAvKF0zYWkE+s6EkewMgJ+otJycWdsWgxiMhdhJhjyIcrlRJaRbTUI2HLqDNcp7IT7JTyyUHt94T4oEysTBWFnEVuoyb9vJmrDbyPTYro1l/RF7Wk69B8H4jdzfFL4odxczCV9jmnQEWua4Qg+XMnCCQAgQwQsgZ7wIAIgcBwXvgYmWPZqVlfFoXUReMiHkZbN+D3jcpAmwgbo1Mqi9J8i1IBuzCX9pfZ+eW5bCkKzEqLkmoNtcB+UKB9qurWuI3PB9xj8feuJ2mfu3J63p2qDZnPjOpLhrztnYg0qFjO13wMz4zpexJpmOIIOV7JgAgDI2HseaIDu8SACIBKELN/gw2Z31nUk5nNdFefWReQu84UdhGcuppvgDSvXrT+V1nQfhG+uNnB5yTUqHz60sJyAy70S+jRXex90Q58+ToQrgxBkuNL3lK5EIP+xz+K+aiN+g8eZOIU3BQu1vdFL60JWsaYZjmDDlaVrJmo/1AAAyBUBS6BjPIgAiMxxTMeUWChdcyea4btaSDrgvtOGDyWdiVNbEI+52kW3Gxbd8uT79p/E5y/CdCPpS8jTZ7A+jtJEgOYi1B0NwpVBCCZcSaBybWy8fUPpmiNJF2JjWeqC+F5gTTMcQYYr/QXp2roOAACMLdQGLGnUAB3hQQRAhLgfeINvkN+KyTXbOA1tR3YOfDDpQrxnkY6p2jDTvXUh6BbTdJGAmQI/6g8/+XukMxFWQFym4ljdIBGuDIJpuNLfy16IqYKbCCJQFprSNSdq71F4JsrPQu0AhBuLF2dNMxzBhSs52gsAgAfmdVW8ty4CSAUPIgAixlHhb+AEjI3wfhoQCzrI0EyEmaJEmBIZmKldHJ0b1wERpkSypiJsGQTClUEwCVeyCXcnhCs9PxDuSryP8NNM0schhyCwphmOoMKVvnnz3boOAAACE8zRCUDseBABkIBDwiqvI2T5KkKVA/E9ritxjCUgEbYMmg8eXIgjEpGfhdqpu+fWheSidM1I7fWG+yPkYqH2HojTAgwQrgzCoGtbhCo7kXW4kuPjsaaF2pDlrO8XYk0zHKGFK7+LDzsAAJ7DQjjQAR5EACSCjRdr8A3RazEJR2onNE2ti8hB6ZoLtVPfALxsKiY6meJYO+BZN5JOuTZ1y4ebrsQ9OSC115njISde5YxwZRAG6V8RquxUluHK0jXnap+PgE312nNlTTMcwYQrS9fciQQ4AACvOWWXK7AbHkQAJOagrop76yJikGmTlIW7gXBUFLATJjIPJNPPQmAbXJd2xL0RsJaZ2ue1uXEdySJcGYRew5X+xIg7EeDvUjbhSv/+uRUZJXSjl5Ala5rh+M26AEkqXcNoXQAA3nZRumZeV8WNdSEAACAId6VrLuuqOLUuJHS+MXwuJT+ta6p2Qw6Byp5x7DeAGBCoBDAUApXAxsaSvpWukdqg5Uee44D1+XzJxLoOxIdJp+jJlb8ucXpQoszDlX5RY2JdBwAAkbguXfOeHa0AAMA78QuZByzErMdPAr+UpNI1I7Whk4lhSbuYqZ0qMDOuIxscNw8gdAScAAzF3xcxPAXY3VjSdx+0ZAMl8Ar/2XNnXQfiU7pmova+BejTMmTJiVOJMQ1X+kbPhWUNAABE6E7SO+siAABAMEZqF2Jo2mzIb1g59l/LaYRHkj4pvEXiuaS/JE3ZaDM8f6TctQgrAQiQ//y6FseFARhA6ZoLSSfWdQCJOvGDiRZqp1nOjOsBgsHnD7ZBqBJG7krXzMVAhGSYhSv9dIhrq9cHACBie6VrbuuqOLQuBAAABOWudM3HuipurAuJlW92Tf3XDz60Mpb0QW3octxTCff+66ukGSFKezThAYTMX6MuRPAbQM+Y3g0Mbk/SrZ9mOa2r4ti4HsCM78ncic8gbIB+DgIwUjsQganUCbCcXHlr+NoAAMRuXLrmgpsxAAk4VRskSs340c//o59T8PYU3kQ8pOO6dM3nuirOrQtJiQ9d3vgvZMAHCG5FYAlAgPwxYxPrOgCkj2ACEISJ/168VzvNcm5bDjAcf4oEuRKsjaPjEaAT/zl+wGd4vEzClaVr2N0GAMDuTkrX/FNXxdS6EADYwX2iRxzNdvmP/aT/kR5OyiPgg3Wdla4RAUtgc0zEABAqf326FZt0AAyAEDcQpH1J30rXLCQd1lWR4mZl4AcC/tiEf176JnroCNOe2s9whiJEavBwZemaE0lHQ78uAACJuipdw5GRAJAYf12f65WQZumaI7XByyMRAsJTZ6Vr/sOUa2B9pWvOJZ1Z1wEAqwhVAhiKv95c6+lJDADCsifpzh8ZfszwBaSI53Nsgk0hiMhZ6Zo/6qo4sC4Emxk0XOlH8F4M+ZoAAGTgVtJ76yIAAMOqq2J5RPGD8Jzf1f2nWBBDO+X6f+yGBV7HtEoAISJUCWAoXG+AqF35UBEhSySDoBzW5YcPXFvXAWxov3TNv5LeMzwpHr8O/Hq3A78eAAA5GPmHTQAAVFfFtK6Kw7oqfqmr4he1AfypcVmwc+Z3+wN4RumasaTvIlgJIBCla/ZK19ypvTYRdALQK99T5HoDxO+qdM2/fsMtEC2ClViXf2YiWImYfeNzOx6DhStL11yrHVMOAAC6N+EGDADwnLoq5nVVHK+ELQ/1ynHjSNIZ9wnAUz54zEZgAMEoXXMrQk4ABlC65spPzJlY1wKgU1ela7770ySBqPhn9IlxGQhc6Zqxv4fhOocUXDEYIQ6DhCtL15xIOhritQAAyNhV6ZqRdREAgLDVVTFbTrZUO9VyZlwShnHlj8oBoB/TMM6s6wAASSpdc+EXCMfWtQBIW+maCaFKIHl7ku5K19yVrmHwEaLg8yQ8o+NVfqAbm2SRmjNOqAzfb32/gN8Zc9H36wAAAEntQ8V76yIAAHGoq2KudpLl8tntVpw4kLLr0jXv/d87kC2OGQMQCn//dWddB4D0+Q3Zd+J5D8jJvqTvpWumdVUcWxcDvMRvBiZPghf5oPg3cR+DdE1K14jP63ANMbnyeoDXAAAArVHpGh5CAQAbq6vivq6Kd5LeSZoal4P+EOBA1jhmDEAoStfcic9lAAPwU54IJAD5mpSu+ZejwhEiH/4nT4IXla4ZS/ou7mOQvgkTLMPVa7jS/8WP+nwNAADwxIl/2AAAYGN1VSzqqjj2x4ZPretB5/b84iqQndI1E3HMGABjK0fyEnAA0KvSNWN/vTmyrgVAEO5K13CcLkLDZiO8yG+Q5bqFnBCwDFRv4Uo/vnnS1+8PAABeRWgCALAzQpbJOvIhMyAbfhoGzUkAZkrX7PlplVyLAPTOB6gIIwB4bOynWI6tCwH85l+mEeJZPmDGBlnkaOKDxQhIn5MraRIBAGBnj50tAICu1FVxrPa48IV1LejMlQ+bAbng3hiAmZWj7JhWCaBXpWv2/bTKsXUtAIJ2y6kWsOQ3/TJZGc/ym0Qm1nUAhs4YjhCWXsKVPszBLgMAAGxN/CRpAAB25o8Lfyfp1LoWdIaFFGTB3xOPresAkCcfXGB6HIDela65EMerAljfUema72y8xNBK1+yJDZB4gQ9Wjq3rAAJwJTZoBqPzcCXHgQMAEBQeUAEAnaqr4lJMsUzFPjtgkYkL6wIA5McfA/5NTOQBMIDSNXeSTqzrABCdPUnfOCYcA2PdCs/y9zNj6zqAgDDUMBB9TK7kwxAAgHDs+V3rAAB0ZmWK5Y11LdgZ9wlIml8kHBmXASAzfgLUd3H9AdAzH+T+LqbaANjNbemac+sikD6OA8dL/MRK7mcABOm3Ln8zH94gOQsAQFhOStf8VVfFvXUhAIC01FXx0Tffz6xrwdb2Stec11Vxbl3IY6Vr9iV9kvSF+xgbPhw0kTSvq2JqWsz2PlkXgM7MJN1L+q//8b6uiqCnKPvr2J7agN1I0u/+58tfR4J8qJtjwAH0zn/OcAw4gK6cla75v7oqjq0LQdLY5IsnStdciYmVAALWWbjSP8Rx5AAAAGG6knRgXQQAID11VZyXrpmLUwxidla65jLAkNKe2mDfpHTN6q9PJf1dVwWTUzvk+zp/qv0zfxz6+jx4Qd1hIkZc5pK+SLqpq2JuW8rutg2G+3Devtow5r6Y3hENP4mHeyIAvSPIDaAnk9I1o7oqDq0LQXoY1IXn+PfFxLoOAHhNl5MraRoBABCu/dI1J3VVXFoXAgBIT10VUx9+47kwXieSzq2LWNNETwOXC7XH1P8taRZgUDQYfiH+D7Whw5FpMT3z/18RtoWkzzynPFRXxUztpM4X+cmyY0kf/I+jXovCmwhWAhgK1xsAPRuXrrklYIkula7ZE4O68Ii/p+F9ASB4nYQr/UWPHdQAAITtonTNlLABAKAPBCyjd6Z4wpXP+THlUpKeCV7OJH1VG7xM+ohxAlcPMBEjXPeSDnk22Z6f7Dn1X0/4abRjtdcCJrj2jKATgKFwvQEwEAKW6BrHgeMB/8zKPQ2AKHQ1uZKLHgAAcbiQdGxdBAAgTT5gOVIb1ENkEp5yvac2WHQkPQleLi3Uhr3uJf1PbRhzHsqxxH7Cw/Jo4D21YanlP+NlbAQO07SuCp5JeuaD5PeSnlzX/SLWn8pggu0QCDoBGIqfys31Bo/N/I9zSf/d8vf44H8ciXsD/DQuXXPFvTt25XuFE+MyEJ5b6wIAYF07hytL17DLAH2a6ecD4dx/vWbkv/7P/zjupSrgbXP/9dX/fLbGfzP2P34QTQz0Z1K65kvqE5sAAHbqqjgvXfO7mJIVoz/0TAgnE3tq78fH/udn0otBTAA7YHHW3krw8nT1133o8pPaz3DC22sg6ARgKP4aTQghL3O16wp/q53Abzrx23/mjdU+N7KJKR+T0jWLuipO3/5XgRexCRsPlK65Fs+ceN1cP7MWy03xi03Xt/39i/Rww/pI5DCwoZ3ClX6XwUk3pSBTC0k3kv6uq+JmiBcsXXOk9uGPRjF2dS/pL0k3HU20mb32P/pr7pHa6RI0L7CLK0kH1kUAAJJ2LMKVMRqXrtlnEwaAHs2tC8DL/PX/WCunHaxMmflTLD484P9sCDqhb/dqe+hz/ZxIt/w1qadJ2ytTs6WHi4/L6Xbjrl8TL/N/H3fWdaBXN5L+GmqdbBt1VczUrmGcr/46mzOycFK65p+6KqbWhSA+/jNsYl0HwuEn/9M3xo+ckHrcROLvX6S3cxjLjffkiPCsXSdXMrUSm5pJ+rxyERucfzi90cNG8Vhtk3hiUxUisJD0RdKl1Q5R3yi91Mo0If9Bf6K2ecGHPNa1X7pmQjMEANCXuioWpWuOxSSnGB2pXbAHgD6MSteMLftC2IzvRZxrJUjhQ4VnYsGBYCW2sZwc+4+k+1Cvh77/Odvmv10JZo4l/e5/zPla0QWClWkxX2vo0gubMyZq7xVGNlWhB1ela+7ZjIktMKgLP/hnSfrF+bmX9CXkdWl/T/ZcjmhPbe/jkxh+lbWtw5U+jEaiHG9ZqA1TBn203MqOu2PpwZE+I6uaEIQbSad97P7uiv+gP/dfy5vSC3F9xtvOJE2tiwAApKuuimnpGpoO8fnw9r8CADu5Ll1zEPKzNl7n/+6yDlH4Y+xG1nUgSHMFdIyvhZVg5uylf2flhJ4PInz5qtI1rFOkYaZ2rSGLYJoPT0wl1iwSc1u65n2On23YySfrAhAUhrflYao2IzQ3rmNn/jNvqpU19ZUNpxOLmmBjl8mVXPjwkoXah8SpdSHb8mHL9xJBywzdSDqO9eHQ36R8lH7spLgSTQs8b1S65iT08DsAIHqnYqpTbMbWBQAdivK5LgN7kr6VrpnWVXH85r+NKKyGKKS0w5YcYwdvOdnkSy5hqS49d0LPkj9i+E+132ejQQsLjL/eTIzLwPZmatca5sZ1mGLNIinLv7+P1oUgGmPrAhCO0jVH4vqfqrnae56ZcR2DeLzhlDxRHrYKV/oLH9NH8FjUobSXPApanqttDCMtC0mHqTVC/ffismmxrzbYwC5wrDrTM01sAAC6UlfFrHTNvXh+jApH9iIhST3jJWjiQyNztRMNpqbVoFOphi05xi5rUxGkHIT/M75Xu1HrB78utQxdJo/rTbQWkj7yPPW8Z9YsmAQdn6PSNRPu3QFsgeFtaZmJTSSSnuSJ9tXew7MekphtJ1cSLsOq41xuouuqOJd0TlAtGfdqQ5VJBYKf45uS7/zO0FvxgY7WXumac39tAwCgL3+Je4/YjPXKMY5ALHzA27oMvG0k6cofe7p0L+mLpJscntlz8Oh40D21/eUTw5K2dW1dAAYzVSJH2aWiroobtQMefvDB7T+V5mQsgpVxyWatoSt+zeK9vy+4EFNaY3JVuob7dABrK11zIsL0KZir3UTChrMX+D+bA+nHRMtrkSlKwsbhSqZWYkU2ocrHVoJqhCzjlG2jw/9/PiBkiRVnks6tiwAAJG0qdibH5oN1AUCHbpTJhKvELHf6Xz0KyN5L+ltt6JJmfqR8b+JUj6bShc6HuOijpGuujI6yS8UzU3JHantdE5OCOuKvN2PjMrCebNcauuL/7I4lHZeuuRXv/VhcyB+HCgBrYHhb3KZ1VXDN35B/tnwnSX5D8cSyHuxmm8mVXPjAxdNbCVlOxE7SGCR5/Pc2HoUsv4mAcNaYXgkA6FNdFYvSNTOxQALAxhcRrkzJvv86e2Eq6UxtyOEfSXNCUugYm0XSMxNH2SXF/10e+6+Yw5Zcb8LHWkMP6qo49N+3d2LNInST0jVf+B4AJLWfCcvvha8v/Pq69vXz+ve7/+fVX4uOn1oZbf2Zm9VVcWhdRAp8vuq4dM2d2LQZpY3ClUytzN5C0gHNpqeWO2TZVRe0z4THnvIhSwLC+CSmVwIA+vVV3CfHZGxdANAVfzT4vehn5WKslWvYG8fCz9ROqvtH7YLXPVOn8JLSNediQTAV92qPsptbF4L+PRO2HKsNLgZ7X8D1JgoMIOmR/759578XGPgTtgtJhG6QspnanuZswI17G72Ov7f5Q+1zcKj3N5+sC8DGyAX1pK6KAzaSxGnTyZXcxObrsq6KqI7qseB31Y3VHreMMCwkvWeB5HV1VUxL19yo/SAfGZeD4e2Vrjmpq+LSuhAAQLLm1gUAyNpnSdfWRSA448e/8EoY895//Vd+OiZ9huzQF4/fKX0P+GDEgST5E33OJJ1Y1vQMrjdhO2Qy9jDqqjgvXTMV4YOQjUvXjPmeQOQWkm4k/V1XxY11MZvy33+zx7/u73OOJP0pw03UfnjbyOr1sRUGVvWMjSRxWjtc6QNjoabd0S8eFjfgp2K8EyG1ENzUVfHRuohY+IWh96VrLhReUxH9+ySJRQYAQF/m1gUAyFddFTd+MxnHg2Nby+PIJd/4fiOIOVc7EXOm9njyea/VoVf+GDvE69ifOgQ84Huhp/5LISxucr0JGkMcDKyEDzhCM1yftOGkPcDYTG14bGZcR6/859XUf/3gTzI803AZBqZWxuWgropNj7LHlthIEpdNJleSmM0P4363tBJS45hwO+yq2FJdFaela/4Rx4TnZlS6ZsKCAwAAABJ1rPb5nGYl+rYMYh6JIGYqWBCME71BbMS/X86Ny+B6E6b7uioOrIvImT9C80rSxLoWPHFUumaP4DECNlMGYcp1+TXA6fLnfsDalXoIW/rpmeOuf1/0Yq42F8S1fGBsJInHWuHK0jX74sKXG3bhdcAfE84D3/DYkb4jf0z4XBxxn5tPerSLDQCALvjp7tZlAMhYXRWL0jUfxTMOwrJuEHOudlHwq6QZAczh+MXGkXEZ2My92pOY6GsjKlxvgjWrq+LQughIdVUc+/ukiXEpeOpE9uF0YNWN2rVi7gff4EOn76UfYcguN6ROOvy90B82kQTAbyRhcFvA1p1c+WevVSA0BCs7xAPf4E4JVnbDhyA+Srq2rgWD2S9dM2YHHwAAAFLkn3GOxZR+xGektq80kZ4NYM7VLiB+raviZriyskBfPC6ndVVcWhcBbOkP6wLwxJxgZVj8ettIBA9C84cIV8LevaSPbETbns+GdJkP4d4mfHOCleHwg9sIWAbq1zX/vZNeq0BoGPnbsboqjtVOGEC/Lmmgdssvyhxb14FBcfwQAKBzfgoLAJjzm/E+W9cBdGyktn97Xbrm30df16VrJn4KCTY3sS4AazukL4jITawLwBOEDQLkA69z6zrwwL4PvQIWjuuq+KWuigOClcEZWxeAVy3qqnhvXQQe8vc599Z14Kk3w5WlawhW5uWYG49++AshodX+3NdVcWpdRIr84uPUuAwM54hFNwAAAKSsropzSTw/IhdHaqe1fl8JXH4vXXPF5ofX8ecTlfecwoGY+esN/biwcJxs2D5aF4AnjqwLQFYWaodF/cJphmHiWSoKbCIJF5PTA7TO5EqOPsnHlBuQ3jEBsD98yPTIT1+lmZQPNlYAALo2si4AAFb56WYsyiJXe2onpN0+E7gc2ZYWlLF1AVjLe4YFIAFj6wLwwA1rZWGrq+JeEtOKw/LBugBkYRmqfOevAwjX2LoAvOqUZ6hw+Q0+9CwD82q40ifK94cpBQFgakPP/BHLN9Z1JOiUXaSDIBycDzZWAAC6NrIuAAAe88/o78VGMkD6Gbj8thK4vM184gghgfB9ZFEQifjdugA88Nm6ALyNk8yCM7IuAMk7JlQZFe5twjX3G44RMN+znFnXgZ/emlxJuCIfnwmnDYYHvm4tuAEYhv8Q56ElD6PMF9AAAN0jnBCXmXUBwFDqqpjXVfFOvO+B54z1cLrlbWaTLRk6ELap71UBKeBI8HDMCO5EhbWhcHDfhL7cc/x3lLi3CdcX6wKwNjb8BOStcOVkiCJgr66Kc+sacuF3U9P46w43AMPiQzwfbLAAAHRpbF0ANjK3LgAYWl0Vh5IOresAAjfWz8mW30vXnFgX1DMWBANWVwUnrCAlY+sC8APrDXH527oA/MTABvTgY10VB9ZFYCtj6wLwPIZWxaOuipkYfBWMF8OVpWsmA9YBW1PrAjLEA3p3uAEYEBMBsjKxLgAAkIYMghcp+q91AYCFuipmdVX8IvokwDr2JF2sTLU8ty6oS4QDgsfmXwC9oP8dFx864FQ+ID0LSe+4JgOd43sqPmwkCcRrkyuZWJWPv6wLyI1/4MPuZhxnb4Ibr0yUrjmyrgEAkIQ/rAvAxmbWBQCW/DS0d2J3OLCJs5WJljxLom9stkYyCHMHhXu/OPH3BqRlVlfFO9Z/41W6ZmRdA170j3UB2NjMugC0XgtXjocqArYI+pmZWReQgK/WBWSKG698fLIuAAAQN79QODYuAxviGRGQ6qpY+OPHDiTNjcsBYrIn6doHLW9L13C0NrrGZmsAfeHaEifWiYB0TOuqOLQuAjsbWReAF82sC8DG5tYFoPVsuJIjwbPCw6IddtPtbmZdQKZm1gVgMGPrAgAA0TuzLgAbm1kXAISkror7uirei0mWwDbGkr77aZb71sUgGVyLAQAA0jP1p0gAALy6KubWNaD10uRKjgTPB80oO/+zLgAA3sJxbgCAbfnPkLF1HdjY39YFACFaTrKsq+IXSafW9QCR2ZN0R8gSHaGnCgAAkJYZwUoAQMheCleOhywCAAAEiw0XAIBtXVgXgK1MrQsAQldXxaUPWb6TdGNdDxARQpYAAAAAVs05ChwAELon4UomVAEAgBXcFwAANla65krSyLoObGxWV8XCugggFn6a5UcftHwvgpbAupYhyzvrQhCl360LAAAAQGcIVgIAgvfc5Mo/Bq8CyNMH6wIAYB2la8bWNQAA4lG6ZiJpYlwGtvPFugAgVnVVzFeClu8kfbauCYjAfumaf9nsjw2NrAsAulRXxcy6BgAAjBzXVTG3LgIAQsUafTieC1fSzMrL2LqAjO1ZF5CAsXUBmRpbF4DBja0LAADEwR/xeWVdB7Yyr6uCqXtAB/xEy/O6Kn7xYctDSTPjsoCQXZeuubUuAtHY51h5AD0ZZn9imwAAIABJREFUWxeArTDIBIjTTV0VU+sigMyMrQvAxnj2DcSDcKVPvRL4ygxp5+GVrtkTF8IucAyQDZoV+WGqNQDgTaVrRpI43jNeTK0EelJXxayuikPClsCrxqVrvvuemTkmyQXvT+sCgI7dWxeAFuHtKI2tC0CL+yds6NS6APSDa0HQWOOPD2v0gXg8uXJsUQTMja0LyNDEuoBEMGl3YH6RY2xdBwa3H8oCFwAgTD5Y+c26DmxtUVfFpXURQC6eCVu+V3uM+MK4NMDanqTv/r4iBHxPhuskoPcJ0AWuN+FgzSEiDI8JCiFxbOKS48ABE2M2ksSDXEZYHocrSSrn6ZN1ARlid3VHStfQ7BjWiXUBMDO2LgAAECaClUn4bF0AkLO6Kub+GPF3K4HLA0mXImyBPH0LJDhHSCBsF9YFAB36al0AfmDtJi6sb4Zjbl0AokIfCrDDvU48yGUEhMmVkKS90jUT6yJy4XfSsSOgO2fWBWSGZkW+2IABAHjCb3QhWBm3OVMrgfDUVXFfV8Xpo8DlO0nHIvCFPIQQsCTsFLaj0jXn1kUAHZlZF4AfRgx0iIOfvMXfVTj+sS4A0bisq4JNhOmbWReAF3EKQAT81EpyMAH5Ea5kdHr22Ok7HP6su7VPs2MYpWtO1B7RhTyNrQsAAISldM2FpGvrOrCzY+sCAKynropFXRXTuioOloHLR6HLG+MSga7dGb/+zPj18bYzhgYgBXVVzKxrwAOs4cSBwEFYeBbBuv6yLgCDYFNo2LjXCR9/R4FZnVw5tioCQdjzi6PokW/2MbWye1fWBaTO72DhGpE3rl0AAEntrsnSNd/EsRQpmLKQC8RvJXT5cTV0uXK8+KkIiSFOe6VrzDZy8BkZjSsClkjEzLoA/DBivSxs/rrP0I1wzOuqIEiFdcx4r2Tjf9YF4FVHfqgSAuTvcybGZeCR1XDl72ZVIBQnfow+euDDaYQA+7FXuoY/234xlQpMuQYALCdZf5c0Mi4Fu1vUVcHUSiBx/njxy7oqDh8HL3348lDSZxHoQLisF32YwhSHK44IRwKY5BWWE3qhYWKtLUhcv7Cur9YFYDAz6wLwpgvudcLj81rc5wRoNVw5sioCQbktXcOxv/24tS4gcRN2qffD79IleA2JKdcAkK3SNaPSNd/FJOuUEKwEoLoqZnVVnL8Svnwv6aOkS3GsF+xcGPYrCQvE46x0jfVR8sDW6qqYWteAJ259kA9hYa0tPGxGwbp4r2SCUwCiwb1OQPzfBc+0gfpt5Z8JzkCS9tR+w763LiQlpWtuRYB5CFela+bcsHXHB1YZC46lD9YFAACG5xepeV5My2VdFTS0Abyproq5pLleWQTzzd+x2lNxxuIzA/24kMHGgLoqbkrXLNT2TBG+/dI1/0o6pD+ISF2KXmxo7krXvK+rYmFdCKTSNd/EWltoOOYZ61rwXsnOTAxticG30jUHfH/a8r21b9Z14GW/ShzziSdG/gEFHfDByrF1HRm55ZrWDR+sZOw0VrFICgAZKV1z5Renuf6nZVZXxal1EUCfStccWdeQk7oq5nVVTOuqOK2r4uCFCZgHaoNxUzEBE9uZGE6v/GL0utjebemaO05oQoS43oRnT23ogOuJMYKVweK6hXXNrAvA4P62LgBru6OXZsdnW8hnBW45uXJsWQSCtAxYHrAjb3sEK83clq5hh/oOSteciGM/8RRNRABInF8wuhb3sKla1FVxaF0EMIBPpWuuJS0kfa6r4tK6oNz5CQj3asOVzypds6+HEzBH/VeGyJxIOjd43UtJZwavi93sS/peuuZe7SRLetxYS+maidUR3XVVzEvX3EhicTsse2qvJ0x1MuD7FN9EbzpEc07FwAb+sS4Ag5uKteaYXJeuuWRT/rBK15yLfkMUfnv7X0HGRvo5BnhuXEtU/MPenVgIsHRbuuZzXRXn1oXEpnTNhTh+Bi8oXTMmuAwA6fG7I6/FYkXqDqwLAAa2J+nCP+MQtAzcSgDzRf7zal/SB//jqPfCEJJPMghX1lWxKF0zlTQZ+rXRiWXIci7pI8EoPOaP4LvQw0Dj1KSY1mcRrgzVXemaU+4nh+OnaF1b14EXEcDBJmbWBWBY/jlqJjbxx+TEn2z5ns1p/SJPFJ9luPKDaRUI2fLIAx4Y1+QnLdxZ1wFJ0lnpmg9M51kPH+JY01g8BANAEphSmZ1DNs0hcwQtE+A3es3UThJ81soEzA/+RzYOpGPPcMPfZxGujN1IbTBKkpjIkjEfpjxToN/TdVXcE+gO2kXpmj/rqmDjWs/8JHqCxuG6Z2olNjS3LgAm/hK959gsJ3ZP66o4ti4mRUyrjBPHgmNdF6Vr/hRHqLyqdM2VaHqEZly65l+1R9yzM/0F7AAFACAPL0xlQfo+MnkaeGA1aCm106lO6XekYWUC5oMApt9UMFE7/XA0eGHoylgGG/78Ub2X4qSPVJyUrln+XV6qDdzzGZCo0MOULzhVXPXmZt+vORxbHSGfMj+p/Na6DryJwA02wobfPNVVMfW9FzY9xmfip1hyv9MRvxn4Vnw/RIljwbGJ5REqTLF8hGmVUbgrXXPPjtKH/OLSrdrvb2AdTLsGgMj4JsiZCJLk6phpEsCbJmqbxlI7TeOYQHJ6fHDq0n8tn4dPxLSA2Jg9k9ZVcervq1gIScuJ2rClJN2oDdvPTSvCTvz36SdF3O/0x2ieqt0Yh3Bd+cDIIYMddsdaRVSmvOcBbOCLeO6O2fJ+h837WyJUmYbf/A4gYBMXpWvOxAMjD3vxWe4oZYy1mLQKAECqCFNiBTuLgc2NJN36kI3UTrX8TNAmPT5see6/5BcLmEoYvrHx6x+Lkz9SdiTpyH8GLNQuBF8y1TJc/jSeP5XgZP66Ki79aWKsPYRtT36wg9rnr6zXzLbBOlt0FqyvYQsz6wJg6lKEK2O3p5+9ss91VZzblhMHv05zZV0HusHkSmxr+cC4UIYhSx72orccY31ZV8WpdTFDI1SJHY2tCwAA/OQXE/8Qn+146pDdxEAnJvo51VIibJks3x84LV1zK5578IK6Km5K10zFvVcO9tQuAp89+gz4klsvPAT+aO+J2iDlyLKWgR1K+m5dBNayr3bNTGKT21r88J9rMcUpNh+tCwAQFz+R+1JsZkzFmR/ENlc7zZJnoxV+SuWVyBEl55fSNeciKY5uJP/A6C+G18qrgZODqdojf5Ldhe4DwRei+Y8O1FXxi3UNwLZYLA8SAbA3+M/xsdoQ5ZFYeMDbkvi+8ottt9Z1QFJku9IH/ry/URu0mQ30ehgA/dLgmX/Ola75Lu7J0JpK+ruuihvrQlLgN499UPvcM7KqI6Tel/8zYWJunJhm+Yjvb1yL3lysohpYQk8hKLO6Kg6ti4Atf7ok0pT1PY/fCHYl7m+SxuRKdOnKT8S7V5tSnxvX0xma6smbqJ1EslD7wZ9MM5Tdn+hD6Zqx9UIWAKTCLyzs+6/fV/4Z2MZC0kFKz2JABFaPkJXanft/SZryvRivuirOS9f8IT6T8bJDSXfWRSAIk/9v726ym7jWNQC/uYt2XRjBMSMIjCD2CAI99bAbagePABgB0K4GSq96cUYQMYL4jCC6I7g6msC9jSrFwrHB2JZ3/TzPWlrGDgs+zrG3qna9+/vyZYfjrfO0IzA/pw0UjPZQ9/foHjwepg1QHkYTg2/qOubq9jRMu90sJxs66H7u36e9bma4lkMKVgK9dJr2/YDx2b3mWadtarUoWtGedVNS30cGYzIepX2AB/fpWZK/usXzLO3iuSpa0S3M5pvXaQOVFsTpeJzkt+57d5V2s2NZsqDb6AKV7+MhEADD8Kp77xqDH/PlteNhoTqYplVTV09LFwHkIP8cI7uKwOUQvYtOYVyjqavz2Xzj4SBfsz009TpJrghfJm348jzJ/3QfV0N9n+jCUwdp74F+7H5tb/KeNHV12k3VOixdC7d2OXTwMW0XwFEGr7vAwZsIUI/FWtdB4K6auvowm29+ifeGsXuci6ZsycWe2GCve7oGGa+TvIrv38l6FMEx9mu3g8Mq7SixRcmCruP0HJccJPljCJsdO2/ov8SazsN4lvYBAMB9OC5dAIzAWVNXL0sXAVzrIP8MXCbtgdTf0/4M9+5ek/j/hK/qHg7+GNez3N5hLoXlrglhXmd56fPzJP+5S0FJ/pUvHxge3vHP4540dXU0m2/+ige6Y/A4/7w2XCT5OMTOlt2zteN4PjFmz0sXAIzGaRxinJqDXH0I+SzJ731rdDWbb16k7bL/Iq672WEsOA/pIF+m1NdpF80Hv2Hswmgv0t7sOUHLt1y12XGW5NcSI8S7N/WfY/OecmySAUB/vCxxTQrcixfd69OlMM0yF6HL1cOXRcd+Ed/U1NXJzphjeGiH3/ic8Xme5K/Ymxuj4yTHl64Jz3NxTVg8dLnzfvdzNCmZkufuSYD70tTV2Wy+WcQz7qk7SNs46vU1h8vO82WH/3Xu0OV/p8v+47R7Pf/KxaQBuJFHkbalnMe5+oZxnfZBwr+7j7daKLvxkgdpk+UWR+7bblfWXcu0b/Kf037vfvemRzfi5SDt9+xPsTEKAMA/rdI+5NBZDcbnsHu9v+Ke8yzt/abg5R51oyyNe+6vVekCdukmBzyUpq7Ws/nmaQQsp2L7XOty9/Ndy+7j5yu+tusgV79/bkMGyUXn2u0LjvoQ7AXGpTug9iKuZbjeldme7+zyD/dKuJI+2naVfJG2W6CFkiE57F6vE9+7AADsxWlTVx9KFwEUsd0vuSp4eZ6u62XfxioNRXfY8Y94yNNrfQwWN3X1VMASeAgCllxyeOlj0j1Xgzs6ck8B7NFRkj9LFwFwU8aCAwDf66fSBQDARK2iWyVwve3J/uvGKq1yMSnk3MPS1my+eZz2gKQgwjAsSxdwHQFL4KEIWAJ7JlgJ7FVTV+ez+eY0JkYAAyFcCQAAAP130tTVonQRwKAdJDnefvKVSQur7vV559fnYwl2d90pX6X930IgZXg+f/u3lCNgCTyU7n35iTUHuGdP+9glHBifpq4+zOabn9JO5wDoNeFKAAAA6K9lU1dHpYsAJuWgex3ufvErYcytVfdKLgJw67TjypNk3dTVefasC08epO3i+VMu/TsYvEXpAr6lC1j+mfZ7EGCvujXnj3i/A+5mnTZYOYoDVcAwNHX10kERYAiEKwEAAKB/1mlHgK9KFwJwQwe5eCByeNVvuEFAE75mOZT3xaauns/mm9+iCwvwAJq6OprNN++TvC5dCzBI501dPS9dBDBZz5P8b+kiAL7mv0oXAAAAAHzhZVNXT4YSIAGAB/KudAHfo6mrlxlYzcBwNXV1muRl6TqAwfkgWAmU1HXMfVq6DoCvEa4EAACAfjhp6uqHpq7OShcCAD1z1tTVsnQR36upq7dpO7EA7F13H/EkbRd8gG856oLZAEV1B8yPStcBPeS6vieEKwEAAKCsRReqXJQuBAB6arAP/pu6Om/q6ock56VrAcavqat1U1dPknwoXQvQW+dJngzx4AowXt2aJGAJF05iH6E3hCsBAACgjG2o8qR0IQDQY6ddJ5NB60ZuDjYkCgxL143ueXS7Ab502tTV824ML0CvCFjC3041YugX4UoAAAB4WKdClQBwI2dNXY2m+1r3b3mSZFW4FGACus65T5IsStcCFLdK261yNNdVwDh1AcunpeuAgt55v+4f4UoAAAB4GCddqNLmCAB826qpq5eli7hv3cjep2lHfAHsXXeo60l0sYSpOmnq6qlulcBQdJMLXLswRe+aunpbugj+6VHpAgAAAGDE1kmOmro6L10IAAzIOu0429HqRnwtZvPNn0meFS4HGLkuVPVkNt8cJ/lUuBzgYZyN8aAKMA071y7ul5iKE6PA+0vnSgAAALh/i7Qjt54IVgLAd1knmUx3paaunqcNkk7i3wuU1dTVoqmrH2JUOIzZOu1+hGAlMHjd/ZIpQIzdkWBlvwlXAgAAwP1YJ3nZjf4+mUooBADu0aSClVtNXZ03dfUkRoUDD2RnVLiDYDAe6yTPu0Oek7qWAsatqavTJEel64A92O6BLEsXwtcZCw4AfK/PpQsAgJ5ZJDn18AIA7mTZ1NWkH5jtjAr/lOS4bDXA2HX3L89n883jJH/EyE0YMqNEgVHrwmc/GBPOiEx+D2RI/ivJsnQRAAAAMDDnaU+V6lIJAHf3wUOFC921hbG9wINo6mrdjdzUyRKG56Tbl1iULgTgIXTXLDr+M3Sn9kCGRedKAAAAuJnztA8uPHAEgPvz3Hvr1bqxvSc6WQIPQSdLGBSdKoHJaupqMZtvzuJ6heHZjgHXqGFghCsBgO/loRcAUyJQCQD7YQTWDe2ELN8meVO4HGDkLoUsf0tyWLYioLNOcmR/AuCL65XDtCFL6Lt3TV29LV0Et/Moyee4MQIAbs5pGgDG7iztaI5V6UIAYKR0q7yF7kHM29l8c5zkfZLHRQsCRq0LLRwlyWy+eZ/kddmKYLLO04Yq7csDXNLU1TLJD7r902Pex0dA50oAAACmbp325OiH0oUAwMider+9u24M6GI23xyk7SpnFB6wV01dnSY5nc03z9J2hxLuhv370P3sAfANTV2dzOab0xgVTr84WDoSj5KsShcBAAxHdwoMAIZukTZQuSpcB3DPmro6ms03L9J2dTsoXA7QWnSjrblH3XXM8yQxMhx4CN3D4SfdyPD30SEK7tsqyUtBDIDvtzMq/HGELCnrpDsUyUgIVwIAADAFiwhTwmQ0dXWW5CxJus5ub+LhP5QgVPlAdkaGH0Q3S2DPuvDCSZKTrpvlp1h34C509wa4J0KWFGQPZKQepR1/BgBwE8vSBQDADaySfEy7meGeFyauC1WfdK/oagkPQpeGQi51szxMG7Q0vhfYm67D3nbdeZE2aGndgW/7kPYQqH0LgD0QsuQBCVWO3KOmrs5n803pOgAAAOC2FtGVErihS10tHyd5neSXCAHAXa1ijGWvNHW1TPIkEXiCG1oleVe6iCG7dJ1l3YF/WqTtUilQCfBALoUs38dkE+6Pg6UT8aj7uIrT+gDAt30uXQAAk3eW5NfuoR3AnXQb7G+7l7Al3I4xlgNwKfB0mDbwdFCwJOiLRRzU2gvrDvztXZIPApUAZXXr8EmSk9l8c5z22gS+1zrJkYOl0yJcCQAAQB+t0z6I+12QEngol8OWSdJtuL+JvTPYWif52NTV29KFcDtdR8unSTKbbw7Sdm95UbAkeEjLtGHKZeE6JuWKdedNdI1ivFZpO1ktC9cBwDW6boOL7rrktxgZzrctovv0ZG3DlZ+THBasg3LO0l7gr5NkNt88S9ud4bhkUUBvrJN8TLLYnt7u1onf4sHiVC1LFwDAKJ0l+T3Jmc0JoG+2G+7bz7vOS69i74RpWacNI+lQOTLdfs/L7ecC5YzQMsKUvdKtOyfda3tt9SaeUzJc2+coulMCDEx3XfI8+fte6H1MMuHCedo8lS6VE7cNV7rQm5Zr29R2X9u9qX2c9mHBL7GhBlOwTDtmc3Hdb+jWie0p4/dpR+YxETaiAbiDVdoQ5WedKIEh666Jl+n2TpK/N+B/iU4HjMt52q4My9KF8HCuCJQfR9iSYVmk3d9cFq6DG9q5tkry97rzKsKW9JcwJcAI7d4LeQY+aeu0gUrPMPjbNlwpZTsN7753XE93U/CheyX5YmTDi0jtw5CtkvyaO2wANHV1muRUy3QAoLNMOxlh6WEmMCVXhJEep903EQxgSIz75h+u6d77S4wRpx9WueP+Jv1zzXXVcTQBoZyztKFtIQuAidh5Bv44bcjyTeGS2K9V2kDlsnAd9NQP21/M5pv/K1kIe/PF2O99MRILem+ddkPq43a8975068Gn2Ogao2VTV0eli4C7mM03f0TAAW7rPG148t9Jzo3CYN+668o/StdBklsc1uRqs/nmWdr9kxdxz0R5q7RdlxZCSdzWTphc91727cH2N+k/gUv2SJByJOwp9IpnS4yGzv6j8i49P6TlmWZ/PNr59cu0YRidCMflRZL1bL453eeicM1IrGe5OMXs+woezirtie3FQ280dj/3LijHaZ3ktHQRANy787TXDv/e/lpoEmB/ujX2PJeurbsHfz9H6JL9WsSoXO5Zt+e8yNXdewUuua1VCu1vMgxXTV1Lktl8s+0crrsu37LKRZDSPggAN3JpdPjjJO+jAdlQLNIeIF8VroMB+uGqL87mm7fR1nasVmkXjEWJv3znNOGr2FiD+3CW5PdSP9PJ3+8Zv0SIeqxOm7r68O3fBsPglBcjtE4b0kn38T/dx3Xa7pK9PXUJ36LLRK/oXFnITkDppzi8ys2t0+4XfBQWoE907+UK2/Xqd13i2Jed66mf0+4JuZ6allWEKCfJnkKv6FzJJMzmm4O0OSv7N+WtMoJJHZ5p9seV4cotSetJWKYNzhS9obCxBt90nva09lnp0xTdDembeCMfsw9pH6AP9mITrtONbDgoXAbTtA08/uPr1lu4mgchvSJc2VPdz8lh2vDlYclaKGKVdm9PKIlB6/aGt8EnB/LH6TzteiXcRK90689hLoKXDNM2qP057TMU+yxsQ07HhcugtSrZJAZK6p5J6ei/X6uMtOu9Z5r98dVw5a7uAuRT3FyM3SI9aoW7c2Or0yVTcZbk9/RoA2DnlM1x2UrYs2WSl335vgMAAO6uu587TPJj99HeyvBsA0mf03Z8cc/GpOwEL4XI+2+Zdl9zKUDJGHQNaA5zsf64jiprmYvroWXZUgDg9rrA3M9p73O4OV3vKebG4cpd3YbGp7iRGLt12la5H/q2cbtzU7s9TXhQsBz4Xr0+qS1MOSnnaQOVq9KFAAAA5XR7fc/S7q/81H08KFfRZCzT3pf9O203697tEUDf7RzO/zHtOuaZxX4sc7FeLe0lQWvnGmp3DTIG9PussrO+xIQPACZI/uUL227UDm3RG7cKV+4StJycRXrU2fI6s/lm9zSz701KWGYgJ7WFKSfnPMlJ378vAQCA/uo2/bdhzIMk/+o+br8+Neu091rrtMGA7eervu+hwVR0zzEO0q5R/9r59VRDUNs163Mu1iyBJtijbh/+IBdrz0/dfzosU9FerHZe/5NurdFpEgDupruO2B7k+CnDvJdZda/Pubj/WBWsB27szuHKXbP55jBt0PLgPv9cem2RtvvesnAdN3ZplMP2ZDN8j+2G4yBHUHRr9Zv43p8SgUoAAKDXuuDT5QcDB9nPPuP2vv4LQ7u/Bx7OpTXqqiD5f1/xtfuyDW5ftg1IJm14yb4PTEi3z3+V675+lSuviWJNAYDBu3QPc99hzC+uIeynMHb3Gq7cpaPlZK2SvEtyNuRTriNJ/nM7q4xoBEUXJn6d5FUE36dGoBIAAAAAAAAA4Jb2Fq7c1QUt30eXtKk6S/JxjGn1nTFY23Ey218LYvbLKhctpldpx3Ity5WzP7P55jhtkPKwbCUUskwbqFwVrgMAAAAAAAAAYNAeJFy5q+sI+D7Ji4f+u+mVRQY2Tvy+dD8Du68f04Yxt59zve2om/Mk/9n9fMjdJW9rNt+8SBuktJ5O21naQOXkfgYAAAAAAAAAAPblwcOVu7quf2/SjqyFsyTvjLC9uZ2g5tblrpn/3X3tKo+/8t9uannN19dpx2rvWnWvJMkUg7V3IUjJJe+SfBCoBAAAAAAAAADYj6Lhysu6cbbvY6TyVC2bujoqXQT0URek/at0HRSzTnLa1NWidCEAAAAAAAAAAFPQq3Dlrtl88yxt0PKwcCk8jEVTVyeli4A+67r9/hUB9KlYpg1U6uYLAAAAAAAAAPDAehuu3NUFil6nHSHO+AhWwg0JWI6ecd8AAAAAAAAAAD0wiHDlZbP55jDJpyQHZSvhHrxr6upt6SJgaGbzzV+xBo7BedrulMvShQAAAAAAAAAAcGGQ4cpdO10tf4lObkNz2tTVh9JFwFDN5ps/kzwrXQffZZ3kY3SnBAAAAAAAAADotcGHKy+bzTfPkrxPcli4FL7uZVNXZ6WLgKGbzTd/xHrXd8skJ01drQrXAQAAAAAAAADADY0uXHnZbL45TvImxuf2yfOmrs5LFwFjMZtv3qft4Es/rNJ25hUgBwAAAAAAAAAYqNGHKy+bzTdvY4R4KeskT43Chfs3m29ep+3ay8Nbpw1TLkoXAgAAAAAAAADA/ZhcuHLXbL55nLbbm7Dl/q2aunpauggYs9l8c5jkj9J1TMA6ycckH4TFAQAAAAAAAADGadLhysuELffmrKmrl6WLgCmYzTcHSf6MNew+CVMCAAAAAAAAAEyMcOVX7IQtXyU5KFvNYJ02dfWhdBEwNbP55q9Yt25rlTZMuRCmBAAAAAAAAACYJuHK7zSbb46TvInQ0k0cNXW1LF0ETNVsvvmU5Lh0HQNwnuRjU1eL0oUAAAAAAAAAANAPwpV3NJtvDtN2tjwuW0mvrJM81fENyusC4Z9K19Ezi7RhyvPShQAAAAAAAAAA0E/ClfesGyV+nOSXTLO75VlTVy9LFwFcmM03B0n+TPK4cCklrGLENwAAAAAAAAAA30m48gHM5ptnacOWx4VL2bfTpq4+lC4CuNpsvvkzybPSdezROslZdKUEAAAAAAAAAOCOhCsLmc03L9IGLg8Ll3If1kmeN3W1Kl0I8HWz+eZtkjel67gnZ0l+berqrHQhAAAAAAAAAACMi3Blj8zmm+MkrzKswOWyqauj0kUAN9d10/2zdB3faZk2SLkoXAcAAAAAAAAAABMgXNlzXYfLV0lelK7lCsaAw4D1eEy4jpQAAAAAAAAAABQlXDlAXde5X9IGLh8XKGGd5GlTV+sCfzdwj2bzzesk7wv99eski7RByvNCNQAAAAAAAAAAwD8IV47EbL55nDZsue+x4oumrk72+OcDD6xbP/7KfsPayyS/JjkTzAYAAAAAAAAAoO+EK0duNt8c5CI+n7h8AAAAeklEQVR0edfxv891l4Pxms03n5Ic3/GPOc9FiHJ115oAAAAAAAAAAKAE4cqJ+s7Q5bKpq6O9FwUUN5tvniX58wa/VYgSAAAAAAAAAIDREq7kCzvjxX9OO178ZVNXy5I1AQ9vNt/8lnYNWCb5PcZ5AwAAAAAAAAAwIf8PZQ7ZuaHpt2wAAAAASUVORK5CYII=;" vertex="1" parent="1">
          <mxGeometry x="630" y="153.75" width="332.4" height="50.5" as="geometry" />
        </mxCell>
        <mxCell id="qGGfUsG8ycWiL8G0Mho2-30" value="" style="html=1;shadow=0;dashed=0;align=center;verticalAlign=middle;shape=mxgraph.arrows2.arrow;dy=0.6;dx=22;notch=0;fillColor=#7EA6E0;rotation=0;" vertex="1" parent="1">
          <mxGeometry x="494" y="150" width="121.5" height="15" as="geometry" />
        </mxCell>
        <mxCell id="qGGfUsG8ycWiL8G0Mho2-31" value="webhook" style="text;html=1;align=center;verticalAlign=middle;whiteSpace=wrap;rounded=0;fontColor=#526B91;" vertex="1" parent="1">
          <mxGeometry x="514.75" y="160" width="80" height="30" as="geometry" />
        </mxCell>
        <mxCell id="qGGfUsG8ycWiL8G0Mho2-32" value="" style="html=1;shadow=0;dashed=0;align=center;verticalAlign=middle;shape=mxgraph.arrows2.arrow;dy=0.6;dx=22;notch=0;fillColor=#FFD966;rotation=0;" vertex="1" parent="1">
          <mxGeometry x="495.5" y="200" width="121.5" height="15" as="geometry" />
        </mxCell>
        <mxCell id="qGGfUsG8ycWiL8G0Mho2-33" value="&lt;font style=&quot;color: rgb(171, 147, 69);&quot;&gt;ログメッセージ&lt;/font&gt;" style="text;html=1;align=center;verticalAlign=middle;whiteSpace=wrap;rounded=0;fontColor=#526B91;labelBackgroundColor=default;" vertex="1" parent="1">
          <mxGeometry x="385" y="435" width="95" height="30" as="geometry" />
        </mxCell>
        <mxCell id="qGGfUsG8ycWiL8G0Mho2-34" value="&lt;font style=&quot;color: rgb(171, 147, 69);&quot;&gt;ログインメッセージ&lt;/font&gt;" style="text;html=1;align=center;verticalAlign=middle;whiteSpace=wrap;rounded=0;fontColor=#526B91;labelBackgroundColor=default;" vertex="1" parent="1">
          <mxGeometry x="271.5" y="211" width="116.75" height="30" as="geometry" />
        </mxCell>
        <mxCell id="qGGfUsG8ycWiL8G0Mho2-35" value="&lt;font style=&quot;color: rgb(171, 147, 69);&quot;&gt;通知用テキスト&lt;/font&gt;" style="text;html=1;align=center;verticalAlign=middle;whiteSpace=wrap;rounded=0;fontColor=#526B91;labelBackgroundColor=default;" vertex="1" parent="1">
          <mxGeometry x="495.5" y="210" width="116.75" height="30" as="geometry" />
        </mxCell>
      </root>
    </mxGraphModel>
  </diagram>
</mxfile>
